<svg xmlns="http://www.w3.org/2000/svg" width="974" height="1077" viewBox="0 0 974 1077">
<g>
<path d="M 250.65 104.76 C247.38,108.23 245.34,110.98 246.09,110.97 C247.85,110.93 251.85,108.00 250.13,108.00 C249.41,108.00 249.20,107.49 249.62,106.80 C250.20,105.87 250.46,105.87 250.77,106.81 C250.99,107.47 251.69,107.70 252.34,107.31 C253.06,106.88 253.01,107.23 252.21,108.21 C251.23,109.42 250.99,114.47 251.21,129.15 C251.45,145.40 251.26,148.69 250.00,149.69 C248.81,150.63 249.29,150.70 252.28,150.04 C253.61,149.74 255.18,149.13 256.93,148.25 C250.81,151.80 244.27,154.86 237.50,157.31 C220.53,163.43 212.78,168.26 202.68,179.00 C186.95,195.73 179.01,219.06 179.00,248.62 C179.00,255.29 179.28,262.16 179.62,263.88 L 180.25 267.00 L 229.43 267.00 C242.06,267.00 251.79,267.03 259.19,267.11 C255.18,267.25 253.30,267.54 253.95,267.95 C255.10,268.67 254.89,268.99 252.95,269.47 C250.62,270.06 250.52,270.40 250.84,276.54 C251.10,281.73 251.50,283.02 252.84,283.08 C254.22,283.14 254.25,283.26 253.00,283.77 C252.18,284.10 255.05,284.93 259.39,285.62 C261.42,285.93 263.40,286.36 265.01,286.79 C260.56,286.20 248.43,286.08 220.50,286.27 L 176.50 286.56 L 167.00 289.89 C139.34,299.59 119.19,314.35 105.47,334.97 C90.03,358.18 83.03,383.98 82.97,417.85 C82.92,446.91 80.63,458.63 71.62,476.00 C57.77,502.68 54.76,510.12 51.27,526.31 C49.86,532.81 49.50,539.24 49.50,557.50 C49.51,577.83 49.78,581.78 51.86,591.50 C54.42,603.49 60.16,621.96 62.26,624.97 C63.98,627.42 99.59,658.61 103.50,661.09 C106.29,662.86 108.77,662.99 138.32,663.00 C158.31,663.00 170.85,662.62 172.06,661.97 C173.12,661.40 174.86,659.26 175.91,657.22 C178.63,651.97 185.63,645.49 191.50,642.81 C199.14,639.31 211.50,639.52 219.14,643.27 C225.45,646.37 231.73,652.62 235.10,659.15 C238.52,665.77 238.89,677.64 235.93,685.49 C232.87,693.63 224.61,701.94 216.99,704.58 C209.19,707.27 198.05,707.08 191.50,704.15 C185.27,701.35 178.58,694.96 175.42,688.79 C174.09,686.19 172.13,683.61 171.07,683.04 C169.84,682.38 156.32,682.00 134.00,682.00 C109.96,682.00 98.21,681.65 96.77,680.88 C95.62,680.26 85.69,671.91 74.70,662.32 C63.72,652.72 54.37,645.24 53.94,645.69 C52.38,647.29 44.94,670.48 42.80,680.39 C41.02,688.62 40.60,693.85 40.57,708.50 C40.53,730.14 42.30,738.86 49.94,754.50 C56.37,767.69 62.40,775.42 76.52,788.60 C89.18,800.40 94.72,807.42 100.45,818.86 C106.08,830.10 107.96,838.98 108.97,859.00 C110.00,879.48 111.92,888.17 118.35,901.50 C133.20,932.28 165.24,956.66 212.09,972.82 C233.52,980.21 246.27,987.96 263.06,1003.80 C264.50,1005.15 265.93,1006.46 267.35,1007.73 C265.72,1006.30 264.08,1004.81 262.44,1003.27 C256.76,997.97 251.19,993.57 250.05,993.49 C248.17,993.35 248.13,993.48 249.54,995.04 C250.81,996.45 251.11,1000.54 251.29,1018.86 C251.43,1033.13 251.15,1040.94 250.50,1040.87 C247.83,1040.59 247.40,1041.10 249.57,1043.12 C245.09,1039.52 240.58,1035.58 236.00,1031.31 C223.64,1019.77 213.78,1013.63 201.00,1009.50 C184.14,1004.06 160.99,993.36 146.08,984.11 C127.04,972.30 107.71,954.89 96.04,939.04 C87.03,926.79 78.65,909.12 74.94,894.50 C72.42,884.60 71.74,879.35 71.02,864.50 C69.73,837.74 67.97,833.63 51.14,817.97 C21.70,790.59 6.66,762.67 2.54,727.77 C2.16,724.61 1.44,721.77 0.93,721.46 C-0.28,720.71 -0.28,699.49 0.93,697.24 C1.45,696.28 2.61,690.33 3.52,684.00 C5.65,669.13 9.70,653.58 15.42,638.20 C17.94,631.44 20.00,625.03 20.00,623.97 C20.00,622.90 18.86,617.63 17.46,612.26 C7.18,572.75 7.98,530.23 19.63,496.75 C23.36,486.03 25.68,481.01 34.32,464.92 C42.56,449.55 44.00,442.99 44.45,418.50 C44.66,407.08 45.52,393.78 46.46,387.50 C55.13,329.55 83.33,287.43 128.73,264.64 C133.80,262.09 138.59,258.99 139.37,257.75 C140.36,256.18 140.94,250.99 141.29,240.50 C142.11,216.20 146.87,196.86 156.79,177.59 C170.34,151.25 191.39,133.20 220.95,122.58 C232.40,118.46 241.32,113.35 248.42,106.86 C249.20,106.14 249.94,105.44 250.65,104.76 ZM 248.25 512.64 C249.15,514.62 249.58,514.93 249.81,513.75 C249.92,513.18 249.74,512.17 249.39,511.12 C250.54,513.57 251.43,515.46 251.99,516.67 C255.52,524.20 257.10,526.99 258.73,528.03 C257.55,527.33 256.44,526.04 255.67,524.43 C252.34,517.45 251.00,521.38 251.00,538.12 C251.00,544.60 251.40,549.00 251.99,549.00 C252.53,549.00 252.08,550.46 250.99,552.25 C249.03,555.46 248.12,558.90 250.00,556.00 C250.86,554.67 250.97,554.67 250.99,556.00 C251.00,556.83 251.87,556.09 252.92,554.37 C254.41,551.92 255.37,550.42 257.50,549.49 C257.18,549.71 256.89,549.96 256.56,550.25 C255.16,551.49 249.02,560.60 242.91,570.50 C236.81,580.40 231.07,588.95 230.16,589.50 C229.22,590.07 216.44,590.72 200.53,591.00 L 172.55 591.50 L 168.83 597.12 C161.27,608.55 152.39,613.47 139.40,613.44 C126.81,613.41 115.71,606.16 109.75,594.08 C107.89,590.30 107.50,587.84 107.50,580.00 C107.51,571.97 107.87,569.80 109.86,566.00 C113.06,559.87 119.48,553.37 125.50,550.17 C129.90,547.83 131.63,547.51 140.00,547.51 C148.45,547.51 150.08,547.82 154.78,550.29 C161.27,553.70 167.11,559.57 169.88,565.47 C171.03,567.91 172.76,570.34 173.73,570.85 C174.71,571.37 184.93,571.79 196.45,571.80 L 217.39 571.81 L 220.45 568.59 C223.80,565.05 239.30,540.40 239.68,538.00 C239.88,536.69 190.97,431.29 188.80,428.38 C188.34,427.76 184.49,427.05 180.23,426.79 C167.58,426.03 157.31,419.37 151.92,408.42 C149.85,404.21 149.50,402.06 149.50,393.50 C149.50,384.31 149.74,383.07 152.44,378.20 C159.54,365.38 172.84,358.80 187.03,361.08 C203.80,363.78 215.20,377.05 215.35,394.05 C215.42,401.25 214.17,405.22 209.71,411.99 C208.08,414.45 206.75,417.45 206.75,418.65 C206.75,419.85 215.75,439.88 226.76,463.17 C234.93,480.46 243.30,498.18 248.24,508.68 C246.68,506.20 246.54,508.89 248.25,512.64 ZM 249.41 798.42 C249.44,798.52 249.99,798.69 251.00,798.92 L 254.50 799.74 L 251.50 799.98 C249.85,800.12 249.18,800.42 250.00,800.64 C251.18,800.96 251.43,802.41 251.16,807.52 C250.91,812.42 251.15,814.00 252.16,814.02 C253.17,814.03 253.13,814.27 252.00,815.00 C250.72,815.83 250.75,815.97 252.25,815.98 C253.21,815.99 254.00,816.45 254.00,817.00 C254.00,817.18 254.10,817.35 254.28,817.49 C251.81,817.14 249.22,817.68 246.31,819.09 C242.78,820.80 241.32,822.27 239.83,825.65 C237.20,831.61 238.17,836.37 243.03,841.25 C246.33,844.56 247.34,845.00 251.63,845.00 C254.40,844.99 257.11,844.40 259.09,843.38 C257.51,844.36 255.91,844.99 254.69,845.00 C253.70,845.00 253.16,845.45 253.50,846.00 C253.84,846.55 253.39,847.00 252.50,847.00 C251.61,847.00 251.16,846.55 251.50,846.00 C251.85,845.44 251.11,845.03 249.81,845.08 C248.54,845.12 248.07,845.39 248.76,845.66 C249.45,845.94 249.75,846.59 249.43,847.11 C249.11,847.63 249.22,847.99 249.68,847.91 C252.29,847.45 253.21,848.04 252.07,849.42 C251.38,850.25 251.02,853.22 251.20,856.67 C251.47,861.86 251.75,862.54 253.76,862.82 C255.01,863.00 255.80,863.51 255.52,863.96 C255.24,864.41 256.92,864.36 259.26,863.84 C263.99,862.80 268.28,860.86 272.00,858.15 C255.86,870.11 231.53,865.16 222.15,845.15 C218.60,837.58 218.38,824.98 221.67,817.82 C224.71,811.21 231.27,804.51 237.86,801.27 C241.91,799.28 244.16,798.65 249.41,798.42 ZM 188.76 406.01 C195.51,401.89 197.81,393.85 194.17,387.06 C190.88,380.92 182.32,378.22 176.20,381.40 C165.84,386.80 165.33,399.96 175.24,406.01 C177.03,407.10 180.07,407.99 182.00,407.99 C183.93,407.99 186.97,407.10 188.76,406.01 ZM 146.95 592.52 C153.65,589.06 156.02,579.33 151.74,572.90 C146.69,565.32 137.13,564.18 130.56,570.38 C124.42,576.17 124.57,583.80 130.95,590.18 C134.28,593.52 135.36,594.00 139.43,594.00 C142.00,594.00 145.38,593.34 146.95,592.52 ZM 212.47 685.02 C221.04,679.72 220.64,665.97 211.78,661.39 C199.55,655.06 186.28,667.97 192.55,680.09 C195.93,686.63 205.88,689.09 212.47,685.02 ZM 280.10 312.89 C272.31,295.57 268.98,289.02 267.27,287.50 C267.91,287.75 268.35,287.98 268.54,288.18 C269.21,288.88 274.25,299.80 280.10,312.89 ZM 267.91 141.01 C271.26,138.38 274.74,135.32 278.09,132.01 C283.02,127.13 286.53,123.20 289.90,118.41 C287.13,122.40 284.30,125.82 280.82,129.53 C277.00,133.61 272.66,137.47 267.91,141.01 ZM 357.00 1035.02 C357.71,1034.82 358.42,1034.61 359.14,1034.38 C358.26,1034.66 357.38,1034.93 356.50,1035.17 C350.94,1036.74 343.36,1037.56 335.76,1037.62 C343.63,1037.24 352.65,1036.24 357.00,1035.02 ZM 290.55 1024.95 C299.35,1030.12 308.21,1033.79 317.50,1036.14 C316.15,1035.88 314.89,1035.58 313.72,1035.24 C306.04,1033.02 298.36,1029.61 290.55,1024.95 ZM 352.18 401.63 C348.90,407.99 343.52,413.41 336.29,416.72 C332.19,418.60 327.33,419.48 322.42,419.37 C335.07,419.51 345.98,413.09 352.18,401.63 ZM 275.11 1060.40 C288.13,1067.34 301.87,1072.15 315.56,1074.48 C301.41,1072.08 288.18,1067.52 275.11,1060.40 ZM 261.99 798.09 C261.89,798.19 261.81,798.25 261.76,798.26 C261.06,798.50 257.58,798.57 254.00,798.40 C253.38,798.37 252.82,798.35 252.33,798.33 C252.39,798.33 252.44,798.33 252.50,798.33 C257.00,798.25 261.02,798.15 261.99,798.09 ZM 285.33 836.56 C285.45,835.15 285.49,833.53 285.50,831.48 C285.50,829.56 285.47,828.03 285.37,826.70 C285.88,830.00 285.87,833.31 285.33,836.56 ZM 268.07 79.45 C262.80,89.66 260.60,93.57 256.72,98.16 C260.40,93.55 263.57,88.17 268.07,79.45 ZM 367.46 1031.31 C379.29,1026.32 391.54,1018.59 401.51,1010.11 C391.28,1018.88 379.24,1026.37 367.46,1031.31 ZM 325.98 353.26 C334.12,354.00 341.76,357.86 347.34,364.04 C341.78,358.02 334.10,354.00 325.98,353.26 ZM 421.35 985.74 C422.82,982.39 424.25,978.43 425.00,975.49 C424.08,979.09 422.88,982.48 421.35,985.74 ZM 279.01 809.63 C279.01,809.59 279.00,809.56 279.00,809.54 C279.00,809.14 282.86,803.48 287.57,796.96 C282.92,803.39 279.12,809.03 279.01,809.63 ZM 256.39 818.03 C257.67,818.26 260.14,819.90 262.12,821.88 C262.93,822.70 263.58,823.37 264.09,823.99 C263.60,823.41 263.00,822.78 262.25,822.03 C260.28,820.07 258.37,818.75 256.39,818.03 ZM 265.29 835.72 C265.05,836.66 264.76,837.50 264.45,838.09 C264.15,838.68 263.73,839.28 263.24,839.87 C264.14,838.66 264.83,837.28 265.29,835.72 ZM 295.97 366.81 C298.19,363.67 299.99,360.29 299.97,359.30 C299.97,359.29 299.97,359.27 299.97,359.26 C299.99,359.35 300.00,359.42 300.00,359.46 C300.00,360.36 298.19,363.67 295.97,366.81 ZM 276.71 528.61 C268.08,528.82 260.98,528.78 259.83,528.49 C259.82,528.49 259.81,528.49 259.80,528.49 C261.02,528.78 268.11,528.81 276.71,528.61 Z" fill="rgba(70,189,245,1)"/>
<path d="M 325.92 1076.59 C325.69,1076.36 321.03,1075.41 315.56,1074.48 C293.83,1070.79 271.97,1060.83 253.07,1046.03 C247.39,1041.59 246.84,1040.48 250.50,1040.87 C251.15,1040.94 251.43,1033.13 251.29,1018.86 C251.11,1000.54 250.81,996.45 249.54,995.04 C248.13,993.48 248.17,993.35 250.05,993.49 C251.19,993.57 256.76,997.97 262.44,1003.27 C280.37,1020.02 297.05,1030.42 313.72,1035.24 C324.82,1038.45 345.00,1038.42 356.50,1035.17 C374.26,1030.17 394.26,1018.02 408.61,1003.51 C417.12,994.91 422.30,986.06 425.00,975.49 C426.96,967.85 427.00,964.39 426.97,816.59 C426.93,666.21 426.92,665.51 424.97,667.86 C423.88,669.16 405.03,695.05 383.07,725.40 C361.10,755.74 342.16,781.45 340.96,782.53 C338.97,784.34 337.02,784.53 317.47,784.80 L 296.14 785.11 L 287.57 796.96 C282.86,803.48 279.00,809.14 279.00,809.54 C279.00,809.93 280.46,813.23 282.25,816.86 C285.10,822.65 285.50,824.45 285.50,831.48 C285.49,838.22 285.05,840.41 282.71,845.16 C277.90,854.98 269.66,861.54 259.26,863.84 C256.92,864.36 255.24,864.41 255.52,863.96 C255.80,863.51 255.01,863.00 253.76,862.82 C251.75,862.54 251.47,861.86 251.20,856.67 C251.02,853.22 251.38,850.25 252.07,849.42 C253.21,848.04 252.29,847.45 249.68,847.91 C249.22,847.99 249.11,847.63 249.43,847.11 C249.75,846.59 249.45,845.94 248.76,845.66 C248.07,845.39 248.54,845.12 249.81,845.08 C251.11,845.03 251.85,845.44 251.50,846.00 C251.16,846.55 251.61,847.00 252.50,847.00 C253.39,847.00 253.84,846.55 253.50,846.00 C253.16,845.45 253.70,845.00 254.69,845.00 C257.60,844.99 262.78,841.33 264.45,838.09 C265.30,836.45 266.00,833.00 266.00,830.43 C266.00,826.34 265.52,825.28 262.12,821.88 C259.98,819.75 257.28,818.00 256.12,818.00 C254.95,818.00 254.00,817.55 254.00,817.00 C254.00,816.45 253.21,815.99 252.25,815.98 C250.75,815.97 250.72,815.83 252.00,815.00 C253.13,814.27 253.17,814.03 252.16,814.02 C251.15,814.00 250.91,812.42 251.16,807.52 C251.43,802.41 251.18,800.96 250.00,800.64 C249.18,800.42 249.85,800.12 251.50,799.98 L 254.50 799.74 L 251.00 798.92 C248.26,798.28 248.91,798.17 254.00,798.40 C257.58,798.57 261.06,798.50 261.76,798.26 C262.45,798.03 268.02,790.88 274.14,782.39 C280.27,773.89 285.78,766.62 286.39,766.22 C287.00,765.83 297.17,765.28 309.00,765.00 L 330.50 764.50 L 338.25 754.00 C342.51,748.22 364.22,718.31 386.50,687.51 L 427.00 631.53 L 427.00 500.00 L 398.25 499.75 C382.44,499.61 365.52,499.51 360.66,499.52 L 351.82 499.53 L 348.16 503.56 C346.15,505.78 337.44,516.40 328.82,527.16 C315.70,543.53 312.62,546.83 309.94,547.36 C308.19,547.71 296.11,548.00 283.10,548.00 C257.07,548.00 256.76,548.07 252.92,554.37 C251.87,556.09 251.00,556.83 250.99,556.00 C250.97,554.67 250.86,554.67 250.00,556.00 C248.12,558.90 249.03,555.46 250.99,552.25 C252.08,550.46 252.53,549.00 251.99,549.00 C251.40,549.00 251.00,544.60 251.00,538.12 C251.00,521.38 252.34,517.45 255.67,524.43 C256.67,526.54 258.28,528.10 259.83,528.49 C261.22,528.84 271.39,528.82 282.43,528.44 C298.84,527.88 302.84,527.45 304.36,526.13 C305.38,525.23 313.79,515.02 323.05,503.43 C332.31,491.85 341.06,481.84 342.49,481.18 C344.36,480.33 356.62,480.00 386.05,480.00 L 427.01 480.00 L 426.50 235.50 L 411.35 235.22 C399.42,235.01 395.94,234.63 394.97,233.46 C394.29,232.65 387.79,219.62 380.52,204.53 C373.25,189.43 366.78,176.44 366.14,175.66 C365.39,174.76 362.17,174.08 357.23,173.78 C321.79,171.61 313.36,125.09 345.72,110.27 C361.98,102.82 383.61,111.66 389.84,128.29 C393.10,137.03 392.83,146.74 389.10,154.63 C387.50,158.00 385.70,161.06 385.10,161.44 C384.49,161.81 384.00,163.20 384.00,164.52 C384.00,167.49 405.60,213.01 407.85,214.79 C408.96,215.66 412.18,215.98 417.99,215.79 L 426.50 215.50 L 426.76 139.63 C426.92,91.19 426.65,62.41 426.01,60.03 C424.37,53.96 419.72,48.49 413.82,45.70 C403.54,40.84 396.66,39.55 381.00,39.56 C367.95,39.57 365.70,39.84 358.48,42.26 C335.05,50.10 317.69,67.37 300.91,99.51 C292.17,116.25 287.97,122.23 278.09,132.01 C268.60,141.40 258.08,148.75 252.28,150.04 C249.29,150.70 248.81,150.63 250.00,149.69 C251.26,148.69 251.45,145.40 251.21,129.15 C250.99,114.47 251.23,109.42 252.21,108.21 C253.01,107.23 253.06,106.88 252.34,107.31 C251.69,107.70 250.99,107.47 250.77,106.81 C250.46,105.87 250.20,105.87 249.62,106.80 C249.20,107.49 249.41,108.00 250.13,108.00 C251.85,108.00 247.85,110.93 246.09,110.97 C245.31,110.99 247.58,107.96 251.13,104.25 C259.39,95.63 260.75,93.63 268.13,79.32 C284.82,46.99 306.61,24.02 332.59,11.38 C349.47,3.17 378.12,-1.94 391.31,0.91 C393.61,1.41 399.10,2.35 403.50,3.00 C422.25,5.79 436.49,12.44 447.37,23.50 C457.82,34.12 463.13,45.63 464.97,61.65 C466.28,73.04 466.33,953.12 465.02,967.56 C462.78,992.48 454.31,1011.27 437.29,1029.10 C416.87,1050.50 386.97,1067.80 361.22,1073.12 C355.87,1074.22 349.58,1075.55 347.24,1076.06 C343.03,1076.99 326.73,1077.39 325.92,1076.59 ZM 317.49 418.99 C305.55,417.30 294.60,407.91 291.01,396.30 C289.90,392.72 289.01,388.37 289.01,386.64 C289.03,380.79 291.93,372.54 295.97,366.81 C298.19,363.67 300.00,360.36 300.00,359.46 C300.00,357.39 270.25,289.97 268.54,288.18 C267.85,287.45 263.73,286.30 259.39,285.62 C255.05,284.93 252.18,284.10 253.00,283.77 C254.25,283.26 254.22,283.14 252.84,283.08 C251.50,283.02 251.10,281.73 250.84,276.54 C250.52,270.40 250.62,270.06 252.95,269.47 C254.89,268.99 255.10,268.67 253.95,267.95 C253.03,267.36 257.26,267.03 265.56,267.02 C274.45,267.00 279.16,267.40 280.32,268.25 C281.26,268.94 289.92,287.27 299.56,309.00 C309.21,330.73 317.72,349.45 318.48,350.60 C319.55,352.24 321.24,352.83 325.98,353.26 C338.30,354.38 349.62,363.07 354.04,374.80 C357.02,382.69 356.45,393.31 352.63,400.78 C345.74,414.27 332.53,421.11 317.49,418.99 ZM 329.70 398.04 C341.31,390.96 337.66,374.11 324.12,372.29 C313.72,370.89 305.48,383.29 310.44,392.88 C313.88,399.53 323.17,402.02 329.70,398.04 ZM 364.93 153.25 C375.03,148.10 375.48,134.92 365.76,128.99 C353.77,121.69 339.69,135.77 346.99,147.76 C351.05,154.42 358.29,156.63 364.93,153.25 ZM 248.25 512.64 C246.41,508.62 246.71,505.82 248.60,509.31 C249.44,510.85 249.98,512.85 249.81,513.75 C249.58,514.93 249.15,514.62 248.25,512.64 Z" fill="rgba(90,141,242,1)"/>
<path d="M 624.00 1074.94 C602.71,1071.16 585.13,1064.00 566.53,1051.54 C532.40,1028.66 515.71,1004.06 512.01,971.17 C511.23,964.30 511.00,830.80 511.21,509.50 C511.48,80.98 511.59,57.19 513.27,51.50 C521.71,22.79 542.52,7.04 578.95,1.77 C604.78,-1.97 629.59,2.87 651.49,15.61 C651.37,15.58 651.25,15.55 651.14,15.53 C650.04,15.31 648.23,14.66 647.14,14.07 C642.75,11.73 642.49,12.85 642.71,33.03 C642.82,43.49 643.23,52.56 643.61,53.18 C644.07,53.92 643.86,54.03 643.00,53.50 C642.13,52.96 641.93,53.08 642.40,53.85 C642.80,54.48 643.75,55.00 644.51,55.00 C645.28,55.00 646.65,56.58 647.57,58.50 C648.19,59.82 649.76,61.82 651.54,63.68 C645.62,58.31 637.11,51.38 633.09,49.01 C629.47,46.87 622.90,43.86 618.50,42.32 C611.18,39.77 609.27,39.53 596.00,39.52 C580.95,39.50 576.66,40.26 564.22,45.17 C558.12,47.58 552.90,53.05 551.16,58.86 C550.32,61.65 550.00,84.10 550.00,139.37 L 550.00 216.00 L 557.39 216.00 C563.00,216.00 565.26,215.58 566.77,214.25 C567.87,213.29 573.82,201.93 579.99,189.00 L 591.21 165.50 L 587.13 157.93 C582.33,149.01 581.12,141.91 583.01,133.86 C585.69,122.47 590.49,116.35 600.71,111.30 C607.43,107.98 609.15,107.55 615.90,107.53 C625.88,107.49 632.63,110.67 640.40,119.06 C646.28,125.41 648.78,131.25 648.98,139.27 C648.73,134.60 646.58,129.00 644.93,129.00 C644.42,129.00 644.11,128.66 644.25,128.25 C644.39,127.84 644.14,127.50 643.69,127.50 C643.24,127.50 642.79,133.37 642.69,140.55 C642.51,153.06 642.59,153.61 644.55,153.77 C646.18,153.91 646.84,153.03 647.80,149.46 C648.39,147.24 648.89,143.62 648.98,140.98 C648.83,150.68 645.02,158.96 637.56,165.84 C631.61,171.32 627.07,173.08 617.17,173.74 C611.01,174.15 608.59,174.71 607.88,175.90 C607.35,176.78 601.09,189.65 593.95,204.50 C586.82,219.35 580.32,232.29 579.50,233.25 C578.22,234.76 576.12,235.00 564.01,235.00 L 550.00 235.00 L 550.00 480.00 L 589.75 480.01 C619.55,480.03 630.13,480.34 632.00,481.28 C633.38,481.97 642.40,492.36 652.05,504.36 C658.74,512.69 664.91,520.14 668.33,524.07 C666.50,522.17 664.28,519.62 661.99,516.76 C657.48,511.11 653.22,506.62 652.52,506.77 C651.34,507.01 648.90,504.10 646.51,499.59 C645.96,498.54 644.83,497.58 644.00,497.46 C642.74,497.28 642.52,498.98 642.65,508.15 C642.74,515.09 643.24,519.58 644.02,520.52 C644.69,521.33 644.95,522.00 644.58,522.00 C644.22,522.00 644.40,522.56 644.98,523.25 C645.56,523.94 649.02,529.04 652.66,534.60 C654.81,537.88 657.06,541.03 658.78,543.21 C655.26,539.17 648.89,531.43 642.08,522.91 C631.02,509.04 623.73,500.75 622.08,500.18 C620.65,499.69 604.09,499.51 584.75,499.78 L 550.00 500.28 L 550.00 635.01 L 596.08 698.76 C621.43,733.82 642.89,763.06 643.78,763.75 C644.41,764.25 646.49,764.58 650.59,764.77 C645.61,764.85 643.20,765.06 643.97,765.40 C646.46,766.51 646.67,767.99 644.25,767.36 C642.71,766.95 642.50,767.73 642.50,773.95 C642.50,778.74 642.88,781.00 643.69,781.00 C644.35,781.00 645.19,781.50 645.57,782.11 C646.05,782.88 645.24,783.00 642.88,782.50 C640.05,781.91 639.71,782.01 640.80,783.14 C641.77,784.16 646.60,784.59 659.96,784.85 C662.93,784.90 665.41,784.92 667.51,784.95 C664.94,784.95 661.80,785.00 657.89,785.00 C647.02,785.00 637.02,784.58 635.67,784.06 C634.14,783.48 628.28,776.33 620.30,765.31 C613.21,755.52 594.63,729.85 579.01,708.28 C563.39,686.70 550.47,669.20 550.29,669.38 C550.11,669.56 549.97,737.11 549.99,819.49 C550.02,962.66 549.68,974.31 554.21,983.58 C554.95,985.10 555.82,986.55 556.84,988.49 C566.36,1006.67 594.15,1027.39 618.57,1034.51 C624.50,1036.24 635.01,1037.87 641.87,1038.35 C641.33,1038.51 641.00,1038.73 641.00,1038.98 C641.00,1039.54 641.56,1040.01 642.25,1040.02 C643.08,1040.03 643.00,1040.35 642.00,1041.00 C641.00,1041.65 640.92,1041.97 641.75,1041.98 C642.70,1042.00 643.00,1045.77 643.00,1057.50 C643.00,1069.20 643.31,1073.02 644.25,1073.07 C644.94,1073.11 644.60,1073.53 643.50,1074.00 L 641.50 1074.86 L 643.50 1075.10 C644.60,1075.23 642.80,1075.65 639.50,1076.04 C638.23,1076.19 637.30,1076.30 636.72,1076.39 C632.48,1076.18 628.26,1075.69 624.00,1074.94 ZM 654.79 352.10 C653.78,352.68 652.11,353.19 650.50,353.38 C643.40,354.21 643.31,354.32 643.09,362.74 C642.98,366.94 642.66,370.74 642.39,371.18 C642.12,371.62 642.67,371.68 643.61,371.32 C644.56,370.95 645.07,371.07 644.76,371.58 C644.44,372.10 646.06,372.35 648.54,372.15 C649.73,372.06 650.88,372.06 651.98,372.16 C642.74,372.31 634.05,382.45 639.65,393.29 C641.76,397.37 646.23,399.76 651.21,399.90 C650.22,399.92 649.18,399.89 648.11,399.78 C645.34,399.52 643.30,399.68 643.59,400.15 C643.88,400.62 643.75,401.00 643.31,401.00 C642.35,401.00 642.50,414.38 643.47,415.95 C643.84,416.55 644.55,416.78 645.06,416.46 C645.56,416.15 645.71,416.59 645.38,417.45 C645.12,418.13 645.58,418.63 646.53,418.95 C643.60,418.49 640.73,417.65 638.03,416.43 C624.07,410.17 616.02,394.90 619.02,380.35 C622.26,364.68 633.42,354.36 648.22,353.38 C651.24,353.18 653.56,352.72 654.79,352.10 ZM 623.79 152.15 C629.89,147.81 631.39,138.31 626.89,132.58 C618.34,121.72 602.01,127.39 602.00,141.22 C602.00,145.10 602.57,146.57 605.20,149.57 C606.95,151.57 609.32,153.61 610.45,154.09 C613.66,155.48 620.52,154.48 623.79,152.15 ZM 741.36 1030.79 C723.23,1047.43 707.84,1058.21 691.49,1065.37 C707.92,1057.92 724.17,1046.57 741.36,1030.79 ZM 671.69 527.13 C674.21,527.55 683.29,528.10 693.50,528.43 C710.08,528.97 714.86,528.84 716.21,527.81 C717.01,527.19 726.35,508.11 736.88,486.05 C726.35,508.11 717.01,527.20 716.21,527.81 C714.86,528.85 710.24,529.00 694.50,528.51 C683.50,528.17 673.53,527.69 672.35,527.45 C672.18,527.42 671.96,527.31 671.69,527.13 ZM 745.86 854.47 C742.27,858.21 737.95,861.20 733.76,862.64 C731.91,863.28 730.07,863.76 728.25,864.08 C734.81,862.70 741.05,859.32 745.86,854.47 ZM 715.29 1002.37 C702.35,1014.51 691.32,1022.72 680.07,1028.41 C691.31,1022.55 703.00,1013.90 715.29,1002.37 ZM 664.30 24.23 C669.12,27.93 673.76,32.07 678.20,36.61 C678.98,37.42 679.75,38.21 680.49,38.99 C675.40,33.85 669.53,28.51 664.30,24.23 ZM 652.05 419.38 C656.48,419.18 662.18,418.08 666.26,416.27 C666.70,416.08 667.13,415.88 667.55,415.66 C667.00,415.95 666.44,416.22 665.86,416.48 C661.56,418.41 656.81,419.38 652.05,419.38 ZM 654.35 66.29 C656.92,68.47 658.77,70.57 658.49,71.01 C658.38,71.20 658.33,71.40 658.34,71.58 C658.05,71.23 657.85,70.75 657.86,70.39 C657.88,69.91 656.50,68.37 654.35,66.29 ZM 660.60 375.41 C663.68,377.87 665.50,381.56 665.50,386.00 C665.50,389.25 664.67,392.04 663.15,394.24 C666.21,389.50 666.42,382.55 662.72,377.70 C662.06,376.83 661.35,376.07 660.60,375.41 ZM 693.73 54.77 C698.79,61.76 703.42,69.57 708.96,80.07 C703.86,70.40 698.72,61.87 693.73,54.77 ZM 674.36 765.10 C681.77,765.26 685.70,765.64 686.97,766.28 C688.00,766.80 690.62,769.76 694.77,775.09 C690.60,769.74 687.99,766.81 686.96,766.32 C685.87,765.80 681.47,765.38 674.36,765.10 ZM 817.08 608.76 C811.99,605.75 807.76,601.40 805.08,596.16 C807.59,601.08 811.98,605.58 817.08,608.76 ZM 847.26 611.08 C844.55,612.25 841.65,612.93 838.29,613.22 C841.08,612.86 843.91,612.23 846.52,611.35 C846.77,611.26 847.02,611.17 847.26,611.08 ZM 655.00 1036.98 C655.58,1036.89 656.15,1036.80 656.73,1036.69 C654.45,1037.18 652.24,1037.55 650.22,1037.79 C651.57,1037.54 653.30,1037.24 655.00,1036.98 ZM 690.00 840.02 C688.17,833.34 688.45,825.90 691.62,818.50 C688.54,825.68 688.16,833.18 690.00,840.02 ZM 677.92 406.96 C681.85,401.81 684.32,395.37 684.77,388.50 C684.32,395.44 681.88,401.82 677.92,406.96 ZM 654.05 1075.74 C650.47,1076.18 646.96,1076.43 643.48,1076.49 C647.05,1076.38 650.57,1076.13 654.05,1075.74 ZM 863.95 595.51 C862.44,598.23 860.35,600.82 857.59,603.59 C856.99,604.19 856.40,604.75 855.82,605.29 C856.39,604.76 856.98,604.19 857.59,603.58 C860.35,600.82 862.44,598.23 863.95,595.51 Z" fill="rgba(96,89,240,1)"/>
<path d="M 842.05 305.56 C833.80,300.25 818.99,293.03 808.50,289.33 L 800.50 286.50 L 755.23 286.28 C730.34,286.16 708.96,286.45 707.73,286.92 C705.98,287.58 702.06,295.53 689.61,323.59 C675.06,356.40 673.84,359.59 675.11,361.56 C675.87,362.73 677.97,365.90 679.77,368.58 C684.07,375.00 685.32,379.98 684.77,388.50 C683.97,400.75 676.73,411.63 666.26,416.27 C658.31,419.80 644.17,420.60 645.38,417.45 C645.71,416.59 645.56,416.15 645.06,416.46 C644.55,416.78 643.84,416.55 643.47,415.95 C642.50,414.38 642.35,401.00 643.31,401.00 C643.75,401.00 643.88,400.62 643.59,400.15 C643.30,399.68 645.34,399.52 648.11,399.78 C658.66,400.80 665.50,395.37 665.50,386.00 C665.50,377.21 658.35,371.37 648.54,372.15 C646.06,372.35 644.44,372.10 644.76,371.58 C645.07,371.07 644.56,370.95 643.61,371.32 C642.67,371.68 642.12,371.62 642.39,371.18 C642.66,370.74 642.98,366.94 643.09,362.74 C643.31,354.32 643.40,354.21 650.50,353.38 C652.70,353.12 654.99,352.26 655.60,351.47 C656.20,350.68 664.70,331.99 674.48,309.95 C684.27,287.91 692.92,269.23 693.71,268.44 C694.92,267.23 703.07,267.00 745.60,267.00 C792.72,267.00 796.11,266.88 796.78,265.25 C797.18,264.29 797.47,256.08 797.43,247.00 C797.37,234.01 796.91,228.57 795.26,221.44 C789.77,197.63 779.50,180.84 763.50,169.49 C755.81,164.04 750.10,161.21 736.50,156.09 C722.05,150.66 711.56,144.26 701.39,134.69 C690.57,124.49 684.86,116.63 675.63,99.20 C668.58,85.89 660.50,72.94 658.74,72.16 C658.33,71.98 658.22,71.46 658.49,71.01 C658.77,70.56 656.80,68.35 654.12,66.10 C651.43,63.85 648.48,60.43 647.57,58.50 C646.65,56.58 645.28,55.00 644.51,55.00 C643.75,55.00 642.80,54.48 642.40,53.85 C641.93,53.08 642.13,52.96 643.00,53.50 C643.86,54.03 644.07,53.92 643.61,53.18 C643.23,52.56 642.82,43.49 642.71,33.03 C642.49,12.85 642.75,11.73 647.14,14.07 C648.23,14.66 650.04,15.31 651.14,15.53 C656.75,16.61 679.49,36.38 689.07,48.50 C695.48,56.62 702.25,67.35 708.96,80.07 C722.05,104.86 731.29,113.39 754.35,121.94 C780.56,131.67 797.70,144.10 811.44,163.37 C825.43,182.98 833.56,207.62 835.44,235.99 C835.09,234.30 834.58,234.06 833.88,235.17 C833.23,236.19 833.03,236.09 833.02,234.75 C833.01,233.79 833.48,233.00 834.06,233.00 C834.64,233.00 834.80,232.49 834.42,231.87 C833.28,230.03 831.78,233.74 832.63,236.27 C833.04,237.50 833.26,239.34 833.11,240.36 C832.96,241.38 833.21,241.99 833.67,241.71 C834.13,241.43 834.50,243.58 834.50,246.50 C834.50,249.43 834.09,251.56 833.59,251.25 C833.08,250.93 832.97,251.74 833.33,253.09 C833.68,254.42 833.98,256.06 833.99,256.75 C833.99,257.43 835.55,259.71 837.45,261.82 L 840.91 265.64 L 841.20 283.31 C841.44,297.12 841.22,301.09 840.20,301.48 C839.48,301.75 839.17,301.53 839.51,300.99 C840.04,300.13 838.58,299.55 837.68,300.25 C837.50,300.39 836.55,299.69 835.56,298.70 C834.57,297.71 833.53,297.14 833.24,297.43 C832.32,298.34 835.07,300.89 841.88,305.44 C841.94,305.48 842.00,305.52 842.05,305.56 ZM 827.34 613.01 C818.30,611.11 809.19,604.21 805.08,596.16 C803.98,594.01 802.35,591.97 801.46,591.62 C800.57,591.28 787.75,591.00 772.97,591.00 C746.50,591.00 746.08,590.97 743.70,588.75 C742.37,587.51 736.22,578.28 730.03,568.24 C723.84,558.20 718.27,549.65 717.64,549.24 C717.01,548.83 704.58,548.28 690.00,548.00 C669.58,547.61 663.02,547.18 661.39,546.10 C660.23,545.32 656.30,540.15 652.66,534.60 C649.02,529.04 645.56,523.94 644.98,523.25 C644.40,522.56 644.22,522.00 644.58,522.00 C644.95,522.00 644.69,521.33 644.02,520.52 C643.24,519.58 642.74,515.09 642.65,508.15 C642.52,498.98 642.74,497.28 644.00,497.46 C644.83,497.58 645.96,498.54 646.51,499.59 C648.90,504.10 651.34,507.01 652.52,506.77 C653.22,506.62 657.48,511.11 661.99,516.76 C666.69,522.63 671.11,527.20 672.35,527.45 C673.53,527.69 683.50,528.17 694.50,528.51 C710.24,529.00 714.86,528.85 716.21,527.81 C718.11,526.35 768.00,421.04 768.00,418.48 C768.00,417.59 766.69,414.95 765.08,412.62 C758.17,402.58 757.22,390.19 762.53,379.35 C767.59,369.00 775.67,362.90 786.63,361.14 C802.04,358.68 815.84,365.83 822.72,379.84 C825.06,384.60 825.50,386.77 825.50,393.52 C825.50,400.57 825.10,402.35 822.21,408.22 C816.41,420.00 805.56,427.00 793.08,427.00 C789.06,427.00 786.85,427.48 785.97,428.53 C783.64,431.34 735.00,535.29 735.02,537.41 C735.06,540.49 753.27,569.28 756.10,570.74 C757.77,571.59 764.62,571.98 778.53,571.99 C801.18,572.00 801.40,571.94 804.99,564.53 C807.90,558.51 815.81,551.59 822.80,548.96 C825.65,547.88 827.77,547.34 830.44,547.17 C830.18,547.35 830.00,547.66 830.00,548.00 C830.00,548.55 830.45,549.00 831.00,549.00 C831.55,549.00 832.00,548.55 832.00,548.00 C832.00,547.62 831.79,547.30 831.48,547.12 C832.81,547.09 834.29,547.13 836.07,547.23 C837.06,547.28 838.02,547.37 838.97,547.49 C835.50,547.27 832.81,547.89 833.59,549.15 C833.93,549.69 834.72,549.94 835.35,549.70 C835.98,549.46 837.51,549.64 838.75,550.10 C840.76,550.85 841.00,551.62 841.00,557.27 C841.00,560.99 840.48,564.12 839.75,564.87 C838.75,565.88 838.81,566.37 840.08,567.32 C840.72,567.80 841.33,568.27 841.89,568.72 C837.96,566.12 834.00,565.73 829.55,567.43 C820.04,571.06 817.25,581.39 823.71,589.07 C828.29,594.51 835.19,595.59 841.64,591.98 C840.13,593.08 839.04,594.21 839.03,594.75 C839.01,595.44 838.13,596.00 837.06,596.00 C835.99,596.00 834.90,596.36 834.63,596.79 C834.36,597.23 835.68,597.40 837.57,597.18 L 841.00 596.78 L 841.00 603.39 C841.00,607.30 840.57,610.00 839.96,610.00 C839.36,610.00 839.46,610.61 840.21,611.45 C840.88,612.20 842.03,612.44 843.50,612.24 C841.76,612.67 839.98,613.01 838.22,613.23 C838.36,613.15 838.46,613.06 838.52,612.97 C838.85,612.44 838.30,611.99 837.31,611.98 C835.78,611.97 835.73,611.82 837.00,611.00 C838.12,610.27 837.62,610.03 835.00,610.03 C832.64,610.03 831.94,610.31 832.87,610.90 C833.99,611.61 833.93,611.94 832.54,612.72 C831.82,613.12 831.59,613.37 831.97,613.54 C830.32,613.48 828.76,613.31 827.34,613.01 ZM 639.50 1076.04 C642.80,1075.65 644.60,1075.23 643.50,1075.10 L 641.50 1074.86 L 643.50 1074.00 C644.60,1073.53 644.94,1073.11 644.25,1073.07 C643.31,1073.02 643.00,1069.20 643.00,1057.50 C643.00,1045.77 642.70,1042.00 641.75,1041.98 C640.92,1041.97 641.00,1041.65 642.00,1041.00 C643.00,1040.35 643.08,1040.03 642.25,1040.02 C641.56,1040.01 641.00,1039.54 641.00,1038.98 C641.00,1038.41 642.69,1038.01 644.75,1038.08 C650.25,1038.27 659.51,1036.48 667.72,1033.64 C683.63,1028.13 697.69,1018.88 715.29,1002.37 C726.59,991.76 739.73,982.58 749.26,978.63 C752.69,977.22 761.35,973.97 768.50,971.43 C784.76,965.65 801.19,957.70 813.22,949.80 C824.06,942.69 836.71,932.32 842.58,925.92 C841.48,927.24 840.49,928.34 839.65,929.15 C837.31,931.41 836.09,933.34 836.55,934.07 C837.06,934.91 837.83,934.56 839.12,932.89 C840.92,930.55 840.96,930.95 840.98,952.07 L 841.00 973.64 L 838.49 975.82 C837.11,977.02 835.73,978.00 835.42,978.00 C835.11,978.00 834.22,978.64 833.44,979.42 C832.35,980.50 832.31,980.94 833.26,981.28 C833.69,981.43 834.62,981.19 835.66,980.71 C819.51,991.33 800.84,1000.53 780.00,1008.00 C761.58,1014.61 754.34,1018.88 741.36,1030.79 C707.62,1061.75 677.54,1075.67 642.50,1076.52 C634.68,1076.71 634.28,1076.65 639.50,1076.04 ZM 713.93 863.69 C693.89,858.03 683.61,837.20 691.62,818.50 C693.55,813.99 694.60,811.67 694.43,809.44 C694.22,806.86 692.39,804.42 688.41,798.89 C683.12,791.56 681.11,788.12 678.12,786.49 C674.93,784.74 670.61,785.05 659.96,784.85 C646.60,784.59 641.77,784.16 640.80,783.14 C639.71,782.01 640.05,781.91 642.88,782.50 C645.24,783.00 646.05,782.88 645.57,782.11 C645.19,781.50 644.35,781.00 643.69,781.00 C642.88,781.00 642.50,778.74 642.50,773.95 C642.50,767.73 642.71,766.95 644.25,767.36 C646.67,767.99 646.46,766.51 643.97,765.40 C642.71,764.84 650.01,764.62 663.22,764.82 C676.86,765.03 685.38,765.56 686.96,766.32 C688.96,767.28 696.84,777.33 710.56,796.43 C711.75,798.10 713.25,798.38 721.22,798.44 C729.07,798.50 731.37,798.92 736.16,801.16 C742.83,804.28 748.98,810.28 752.18,816.81 C753.92,820.33 754.58,823.66 754.84,830.16 C755.15,837.89 754.90,839.48 752.44,844.95 C745.93,859.45 728.66,867.86 713.93,863.69 ZM 871.05 682.00 L 840.90 682.00 C821.25,682.00 804.45,682.27 803.58,682.61 C802.71,682.94 800.58,685.88 798.84,689.14 C792.78,700.51 782.80,706.41 769.50,706.46 C762.92,706.49 760.52,706.04 756.00,703.91 C749.03,700.62 742.84,694.42 739.29,687.16 C735.40,679.23 735.35,668.10 739.18,659.85 C742.50,652.68 748.64,646.53 755.85,643.15 C760.60,640.92 762.85,640.51 770.00,640.53 C777.28,640.56 779.29,640.97 784.00,643.35 C790.33,646.56 794.26,650.02 797.23,655.00 C798.38,656.92 800.23,659.51 801.34,660.75 C803.34,662.99 803.42,663.00 835.42,662.99 C860.18,662.99 868.08,662.68 870.05,661.66 C868.34,662.55 863.52,662.99 855.37,662.99 C846.89,663.00 842.93,663.38 842.21,664.25 C841.64,664.94 841.03,668.73 840.84,672.68 C840.69,675.91 840.42,677.86 841.25,679.09 C842.66,681.19 847.25,681.15 861.00,681.64 L 871.05 682.00 ZM 728.95 843.52 C737.55,839.08 738.29,825.88 730.27,820.20 C725.75,817.01 721.68,816.61 716.63,818.84 C711.46,821.13 709.03,824.33 708.29,829.86 C707.66,834.56 710.65,840.70 714.83,843.29 C718.16,845.36 725.18,845.47 728.95,843.52 ZM 799.01 405.75 C806.72,400.50 808.72,392.62 804.01,386.01 C796.06,374.84 779.02,380.21 779.00,393.88 C778.99,404.83 790.41,411.60 799.01,405.75 ZM 779.03 683.20 C785.63,676.61 785.37,669.17 778.34,663.00 C775.11,660.16 772.75,659.53 767.00,659.97 C758.70,660.61 753.32,671.91 757.48,679.96 C760.06,684.94 763.64,687.00 769.75,687.00 C774.77,687.00 775.56,686.68 779.03,683.20 ZM 642.69 140.55 C642.79,133.37 643.24,127.50 643.69,127.50 C644.14,127.50 644.39,127.84 644.25,128.25 C644.11,128.66 644.42,129.00 644.93,129.00 C646.69,129.00 649.00,135.32 649.00,140.14 C649.00,142.80 648.46,146.99 647.80,149.46 C646.84,153.03 646.18,153.91 644.55,153.77 C642.59,153.61 642.51,153.06 642.69,140.55 ZM 837.68 258.43 C838.80,259.40 842.44,261.61 846.62,263.87 C842.76,261.96 841.05,261.54 840.26,262.20 C839.24,263.04 839.11,262.88 839.65,261.47 C840.19,260.07 839.98,259.80 838.72,260.28 C837.62,260.70 837.27,260.47 837.62,259.55 C837.76,259.19 837.77,258.79 837.68,258.43 ZM 845.60 922.10 C853.00,911.56 857.92,903.52 861.23,895.50 C859.98,898.79 858.58,901.90 857.03,904.76 C854.29,909.82 849.69,916.71 845.60,922.10 ZM 883.91 806.19 C887.88,800.88 892.96,795.55 900.46,788.56 C900.79,788.25 901.12,787.94 901.44,787.64 C900.82,788.26 900.20,788.88 899.59,789.50 C891.72,797.32 887.10,802.18 883.91,806.19 ZM 848.73 550.17 C855.12,553.05 860.17,557.98 863.75,564.86 C860.32,558.56 854.94,553.23 848.73,550.17 ZM 917.91 769.80 C921.24,765.31 923.93,760.77 926.56,755.43 C938.18,731.83 940.00,703.69 931.93,672.29 C941.33,708.89 937.22,741.45 919.96,767.12 C919.51,767.79 918.81,768.70 917.91,769.80 ZM 892.98 918.50 C884.37,936.50 871.00,953.02 853.53,967.52 C871.14,952.74 884.57,936.10 892.98,918.50 ZM 836.00 247.25 C836.31,252.27 836.74,256.17 837.17,257.61 C837.14,257.59 837.10,257.56 837.07,257.54 C836.44,257.15 836.01,253.05 836.00,247.25 ZM 866.39 876.02 C867.17,870.62 867.64,864.60 867.98,857.50 C867.99,857.31 868.00,857.12 868.01,856.93 C867.99,863.36 867.43,869.81 866.39,876.02 ZM 866.59 588.55 C865.73,592.42 864.15,595.72 861.64,599.01 C863.92,595.78 865.58,592.24 866.59,588.55 ZM 883.79 289.91 C898.90,304.39 910.34,321.98 918.85,343.50 C910.38,322.10 898.86,304.42 883.79,289.91 ZM 865.79 327.36 C860.25,320.51 853.88,314.35 846.65,308.82 C853.79,314.17 860.18,320.37 865.79,327.36 ZM 847.65 575.06 C848.88,577.56 848.79,580.15 847.77,583.63 C847.15,585.76 846.69,587.76 846.76,588.08 C846.80,588.28 846.21,588.84 845.26,589.55 C846.20,588.81 846.80,588.25 846.76,588.07 C846.69,587.75 847.15,585.76 847.77,583.63 C848.73,580.37 848.70,577.54 847.65,575.06 ZM 865.15 567.76 C866.33,570.35 866.92,572.23 867.21,574.54 C867.16,574.29 867.11,574.04 867.06,573.79 C866.63,571.73 865.99,569.71 865.15,567.76 ZM 853.13 607.60 C851.10,609.20 849.24,610.30 847.33,611.05 C849.16,610.24 851.15,609.06 853.13,607.60 ZM 870.53 834.24 C871.22,831.32 872.08,828.62 873.19,825.81 C872.13,828.60 871.25,831.39 870.53,834.24 Z" fill="rgba(117,76,238,1)"/>
<path d="M 833.26 981.28 C832.31,980.94 832.35,980.50 833.44,979.42 C834.22,978.64 835.11,978.00 835.42,978.00 C835.73,978.00 837.11,977.02 838.49,975.82 L 841.00 973.64 L 840.98 952.07 C840.96,930.95 840.92,930.55 839.12,932.89 C837.83,934.56 837.06,934.91 836.55,934.07 C836.09,933.34 837.31,931.41 839.65,929.15 C844.00,924.93 852.77,912.63 857.03,904.76 C863.94,891.99 867.99,874.24 868.01,856.68 C868.02,839.81 871.23,827.29 879.17,813.19 C882.61,807.09 886.82,802.19 899.59,789.50 C908.43,780.70 917.60,770.63 919.96,767.12 C937.22,741.45 941.33,708.89 931.93,672.29 C928.88,660.42 923.50,645.43 921.93,644.46 C921.42,644.14 912.62,651.22 902.38,660.19 C892.15,669.16 882.13,677.78 880.14,679.35 L 876.50 682.19 L 861.00 681.64 C839.20,680.87 840.43,681.41 840.84,672.68 C841.03,668.73 841.64,664.94 842.21,664.25 C842.93,663.38 846.89,663.00 855.37,662.99 C863.52,662.99 868.34,662.55 870.05,661.66 C873.22,660.00 912.09,625.98 914.92,622.38 C917.64,618.91 922.30,604.21 925.01,590.50 C928.00,575.37 928.80,547.44 926.65,533.50 C923.64,514.03 920.91,506.81 904.67,475.50 C896.76,460.24 894.95,451.02 893.99,421.00 C893.12,394.02 892.43,388.06 888.44,373.26 C880.47,343.73 864.61,320.62 841.88,305.44 C835.07,300.89 832.32,298.34 833.24,297.43 C833.53,297.14 834.57,297.71 835.56,298.70 C836.55,299.69 837.50,300.39 837.68,300.25 C838.58,299.55 840.04,300.13 839.51,300.99 C839.17,301.53 839.48,301.75 840.20,301.48 C841.22,301.09 841.44,297.12 841.20,283.31 L 840.91 265.64 L 837.45 261.82 C835.55,259.71 833.99,257.43 833.99,256.75 C833.98,256.06 833.68,254.42 833.33,253.09 C832.97,251.74 833.08,250.93 833.59,251.25 C834.09,251.56 834.50,249.43 834.50,246.50 C834.50,243.58 834.13,241.43 833.67,241.71 C833.21,241.99 832.96,241.38 833.11,240.36 C833.26,239.34 833.04,237.50 832.63,236.27 C831.78,233.74 833.28,230.03 834.42,231.87 C834.80,232.49 834.64,233.00 834.06,233.00 C833.48,233.00 833.01,233.79 833.02,234.75 C833.03,236.09 833.23,236.19 833.88,235.17 C835.35,232.84 836.00,236.48 836.00,247.02 C836.00,252.94 836.43,257.15 837.07,257.54 C837.66,257.91 837.90,258.81 837.62,259.55 C837.27,260.47 837.62,260.70 838.72,260.28 C839.98,259.80 840.19,260.07 839.65,261.47 C839.11,262.88 839.24,263.04 840.26,262.20 C841.24,261.38 843.64,262.22 849.86,265.54 C882.62,283.05 904.89,308.21 918.85,343.50 C927.83,366.20 930.83,382.78 931.98,416.00 C932.97,445.04 934.26,450.82 943.26,466.59 C957.40,491.38 963.68,512.08 966.06,541.76 C967.76,562.93 965.54,587.74 959.96,609.82 C958.33,616.24 957.00,622.73 957.00,624.24 C957.00,625.75 958.74,631.60 960.88,637.24 C970.91,663.78 973.00,674.53 973.70,703.10 C974.37,730.42 973.55,738.17 968.32,754.39 C960.86,777.54 949.90,794.30 929.57,813.68 C909.24,833.06 907.26,837.24 905.98,863.50 C904.80,887.71 901.96,899.73 892.98,918.50 C882.17,941.11 863.10,962.13 837.50,979.66 C835.85,980.79 833.94,981.52 833.26,981.28 ZM 832.54 612.72 C833.93,611.94 833.99,611.61 832.87,610.90 C831.94,610.31 832.64,610.03 835.00,610.03 C837.62,610.03 838.12,610.27 837.00,611.00 C835.73,611.82 835.78,611.97 837.31,611.98 C838.30,611.99 838.85,612.44 838.52,612.97 C838.19,613.50 836.33,613.88 834.38,613.80 C831.58,613.70 831.19,613.47 832.54,612.72 ZM 840.21 611.45 C839.46,610.61 839.36,610.00 839.96,610.00 C840.57,610.00 841.00,607.30 841.00,603.39 L 841.00 596.78 L 837.57 597.18 C835.68,597.40 834.36,597.23 834.63,596.79 C834.90,596.36 835.99,596.00 837.06,596.00 C838.13,596.00 839.01,595.44 839.03,594.75 C839.04,594.06 840.82,592.41 842.97,591.08 C845.13,589.76 846.83,588.41 846.76,588.08 C846.69,587.76 847.15,585.76 847.77,583.63 C849.78,576.78 848.18,573.39 840.08,567.32 C838.81,566.37 838.75,565.88 839.75,564.87 C840.48,564.12 841.00,560.99 841.00,557.27 C841.00,551.62 840.76,550.85 838.75,550.10 C837.51,549.64 835.98,549.46 835.35,549.70 C834.72,549.94 833.93,549.69 833.59,549.15 C832.44,547.28 838.89,546.83 844.23,548.40 C855.20,551.64 864.64,562.14 867.06,573.79 C869.16,583.91 866.14,594.50 858.88,602.44 C852.24,609.71 842.74,614.30 840.21,611.45 ZM 830.00 548.00 C830.00,547.45 830.45,547.00 831.00,547.00 C831.55,547.00 832.00,547.45 832.00,548.00 C832.00,548.55 831.55,549.00 831.00,549.00 C830.45,549.00 830.00,548.55 830.00,548.00 Z" fill="rgba(136,60,234,1)"/>
</g>
</svg>