<svg xmlns="http://www.w3.org/2000/svg" width="974" height="1076" viewBox="0 0 974 1076">
<g>
<path d="M 622.70 1073.94 C596.65,1069.35 573.39,1058.02 550.36,1038.69 C530.21,1021.79 518.25,1002.81 513.32,979.93 C511.58,971.85 511.50,952.42 511.50,515.00 C511.50,80.72 511.59,58.18 513.28,52.00 C520.01,27.35 537.06,11.44 564.07,4.59 C579.26,0.73 594.86,-0.61 607.48,0.86 C651.12,5.93 684.56,32.34 709.92,81.75 C721.42,104.14 732.13,113.51 756.50,122.50 C775.42,129.48 789.95,138.78 801.92,151.58 C823.61,174.76 836.00,209.13 836.00,246.11 C836.00,257.87 836.21,258.18 848.34,264.44 C887.10,284.47 913.22,317.89 925.38,363.00 C929.87,379.67 931.14,389.55 931.97,414.50 C932.88,442.10 934.11,449.01 940.05,460.12 C948.74,476.38 955.05,489.95 957.89,498.50 C968.78,531.29 969.37,573.37 959.47,610.84 C956.30,622.82 956.36,625.34 960.02,634.55 C963.85,644.19 969.72,663.40 971.62,672.50 C973.56,681.83 974.59,721.75 973.18,733.00 C971.61,745.49 967.69,757.96 961.06,771.54 C953.18,787.69 945.51,797.79 928.48,814.50 C908.78,833.82 907.18,837.22 905.96,862.50 C904.76,887.40 901.01,902.37 891.21,921.41 C876.45,950.11 847.35,976.45 810.50,994.46 C797.98,1000.58 792.23,1002.96 772.32,1010.29 C759.86,1014.88 753.35,1018.98 742.61,1029.02 C714.34,1055.46 689.97,1068.80 660.50,1074.00 C646.64,1076.44 636.84,1076.43 622.70,1073.94 ZM 667.24 1033.05 C684.08,1027.35 696.95,1018.91 716.95,1000.45 C732.86,985.76 741.91,980.21 760.57,973.68 C804.59,958.29 834.19,938.76 851.00,914.00 C862.39,897.22 866.62,882.89 867.97,856.50 C868.55,845.11 869.50,836.48 870.55,833.00 C876.19,814.31 884.60,801.63 900.18,788.36 C930.97,762.14 942.87,724.39 934.03,681.00 C931.82,670.18 924.69,647.32 922.65,644.54 C921.67,643.20 918.37,645.69 900.11,661.56 C888.35,671.79 877.63,680.57 876.30,681.08 C874.96,681.58 857.99,682.00 838.59,682.00 C809.21,682.00 803.36,681.79 801.03,684.55 C800.29,685.44 799.90,686.64 799.22,688.25 C797.33,692.66 789.99,699.96 784.54,702.84 C780.06,705.20 778.40,705.50 769.50,705.50 C760.99,705.50 758.86,705.16 755.20,703.21 C745.14,697.83 737.83,687.46 736.47,676.63 C735.67,670.23 737.81,660.84 741.36,655.23 C749.86,641.75 767.15,636.15 782.36,641.95 C787.86,644.04 793.65,649.11 797.87,655.53 L 802.12 662.00 L 835.31 661.96 C859.44,661.94 869.09,661.60 870.65,660.71 C871.83,660.05 882.36,651.18 894.04,641.00 C917.48,620.59 916.95,621.30 921.50,604.58 C925.74,589.03 927.14,579.33 927.70,561.50 C928.72,529.72 924.23,511.22 908.56,482.50 C902.10,470.68 898.03,460.31 895.97,450.50 C895.39,447.75 894.52,433.80 894.03,419.50 C893.33,399.44 892.64,391.22 891.00,383.50 C884.98,355.15 873.91,333.82 856.66,317.29 C843.83,304.99 832.65,298.28 810.80,289.75 L 802.50 286.51 L 754.91 286.21 C715.83,285.96 707.12,286.15 706.20,287.26 C704.97,288.74 674.00,357.96 674.00,359.22 C674.00,359.65 675.95,362.65 678.34,365.89 C683.67,373.12 685.36,378.81 684.83,387.70 C683.79,405.11 671.53,417.69 654.53,418.78 C623.57,420.77 606.94,385.93 627.79,362.80 C632.52,357.55 641.41,353.33 649.55,352.46 L 655.87 351.78 L 674.06 310.64 C684.06,288.01 692.70,268.94 693.25,268.25 C694.02,267.28 705.61,267.00 745.06,267.00 C783.01,267.00 796.07,266.70 796.61,265.82 C798.17,263.30 798.19,239.54 796.64,229.43 C793.13,206.45 785.59,190.33 772.10,177.00 C761.95,166.97 755.84,163.18 740.55,157.41 C720.15,149.73 708.59,142.56 697.15,130.52 C688.70,121.63 684.23,115.06 676.05,99.51 C661.00,70.93 646.86,55.31 627.58,45.98 C616.46,40.61 607.76,38.69 595.00,38.78 C583.89,38.86 573.66,40.94 564.03,45.08 C558.12,47.62 552.83,53.27 551.17,58.82 C550.35,61.55 550.01,84.42 549.98,138.58 L 549.94 214.50 L 556.72 215.08 C560.78,215.43 564.42,215.23 565.78,214.58 C567.42,213.80 571.28,206.80 579.53,189.63 C585.84,176.51 591.00,165.32 591.00,164.78 C591.00,164.24 589.42,161.24 587.49,158.12 C580.77,147.23 580.54,135.19 586.83,123.58 C594.35,109.70 615.24,103.10 629.62,110.06 C636.65,113.46 644.38,121.75 647.00,128.67 C651.59,140.85 647.90,156.23 638.24,165.13 C632.19,170.71 626.26,173.10 616.88,173.75 C612.55,174.04 608.62,174.78 608.15,175.39 C607.67,176.00 601.35,188.86 594.11,203.96 C586.86,219.06 580.20,232.23 579.31,233.21 C577.90,234.77 575.88,235.00 563.85,235.00 L 550.00 235.00 L 550.00 480.00 L 631.89 480.00 L 634.34 482.25 C635.68,483.49 644.01,493.57 652.85,504.66 C661.68,515.75 669.93,525.54 671.18,526.41 C673.08,527.74 676.89,528.00 694.57,528.00 C713.44,528.00 715.85,527.81 717.21,526.25 C719.36,523.76 768.00,420.12 768.00,418.01 C768.00,417.05 767.16,415.20 766.14,413.88 C761.11,407.44 759.54,402.75 759.52,394.00 C759.50,386.88 759.93,384.59 762.14,379.88 C765.71,372.26 771.05,366.61 777.84,363.29 C782.67,360.92 784.74,360.51 792.00,360.51 C799.07,360.50 801.43,360.94 806.05,363.10 C813.96,366.81 818.48,371.20 822.23,378.81 C825.10,384.65 825.50,386.44 825.50,393.48 C825.50,400.06 825.02,402.51 822.85,407.15 C817.40,418.77 806.93,425.75 793.24,426.88 L 785.72 427.50 L 760.40 481.00 C746.48,510.42 735.07,535.50 735.04,536.72 C735.00,539.11 753.23,568.99 755.52,570.27 C756.27,570.69 766.93,570.92 779.20,570.77 L 801.50 570.50 L 804.39 565.11 C812.14,550.65 827.07,543.60 841.89,547.39 C849.42,549.32 854.47,552.45 859.78,558.49 C865.05,564.48 867.46,571.46 867.44,580.68 C867.42,586.88 866.95,588.79 863.96,594.63 C859.66,603.04 852.52,609.21 844.32,611.59 C836.41,613.90 826.10,613.13 819.46,609.75 C814.11,607.02 807.22,600.26 804.57,595.14 C803.70,593.45 802.11,591.60 801.06,591.03 C799.87,590.40 788.90,590.00 772.65,590.00 C758.08,590.00 745.47,589.73 744.63,589.41 C743.78,589.09 737.89,580.38 731.53,570.05 C725.17,559.73 719.03,550.43 717.88,549.39 C715.97,547.66 713.71,547.48 690.65,547.25 C676.82,547.11 664.49,546.76 663.26,546.48 C661.84,546.16 654.39,537.71 643.02,523.52 C633.12,511.18 624.14,500.61 623.08,500.04 C621.83,499.38 608.28,499.00 585.57,499.00 L 550.00 499.00 L 550.00 634.60 L 557.30 644.55 C561.31,650.02 581.62,678.12 602.42,707.00 C623.23,735.88 641.55,760.74 643.14,762.25 L 646.03 765.00 L 687.15 765.00 L 689.83 767.81 C691.30,769.35 696.87,776.72 702.22,784.19 L 711.93 797.77 L 720.72 797.69 C728.31,797.63 730.34,798.00 735.75,800.44 C754.99,809.15 761.23,832.72 749.01,850.48 C740.92,862.24 724.37,867.10 710.34,861.85 C703.36,859.24 695.81,852.46 692.16,845.52 C689.83,841.12 689.51,839.34 689.50,831.00 C689.50,822.26 689.76,821.00 692.70,815.32 L 695.90 809.13 L 693.62 805.82 C686.56,795.56 679.67,786.34 678.25,785.25 C677.07,784.34 671.02,784.00 656.32,784.00 L 636.03 784.00 L 633.08 781.25 C631.46,779.74 612.94,754.65 591.92,725.50 C570.90,696.35 552.86,671.61 551.84,670.51 C550.01,668.57 549.97,672.10 550.23,821.01 L 550.50 973.50 L 553.19 980.20 C559.79,996.68 572.77,1010.24 594.33,1023.20 C611.38,1033.44 624.79,1037.08 644.00,1036.65 C656.19,1036.38 658.44,1036.03 667.24,1033.05 ZM 390.50 183.61 C392.14,185.56 392.15,184.39 390.84,181.15 C398.63,197.58 405.92,212.05 407.26,213.75 C407.92,214.59 411.31,215.00 417.62,215.00 L 427.00 215.00 L 426.98 61.50 L 424.63 56.46 C421.75,50.26 417.77,46.81 410.32,44.02 C400.11,40.20 391.93,38.74 381.00,38.79 C380.38,38.79 379.76,38.80 379.14,38.81 C384.53,38.60 390.02,38.75 394.50,39.32 C398.57,39.83 399.13,39.73 397.51,38.79 C395.53,37.64 393.61,37.24 389.19,37.08 C387.92,37.04 387.15,36.57 387.47,36.05 C387.82,35.49 385.26,34.97 381.28,34.80 L 374.50 34.50 L 374.22 19.73 C374.06,10.96 374.36,4.19 374.98,3.05 C375.54,1.99 375.67,0.91 375.25,0.66 C375.00,0.50 374.29,0.46 373.25,0.51 C380.54,-0.23 385.60,0.02 394.80,1.24 C394.41,1.33 394.07,1.53 393.77,1.83 C392.88,2.72 393.00,3.00 394.30,3.00 C395.23,3.00 396.00,3.47 396.00,4.04 C396.00,4.64 396.60,4.54 397.42,3.79 C398.63,2.69 398.55,2.37 396.89,1.58 C396.83,1.55 396.77,1.53 396.71,1.50 C396.81,1.52 396.91,1.53 397.01,1.55 C420.80,4.86 434.93,10.93 447.00,23.01 C455.05,31.07 460.44,40.23 463.74,51.50 C465.41,57.18 465.52,81.54 465.80,507.50 C466.01,825.10 465.78,960.66 465.02,968.25 C461.60,1002.19 444.91,1027.59 411.00,1050.47 C408.65,1052.06 406.06,1053.67 403.32,1055.26 C403.36,1055.22 403.38,1055.19 403.41,1055.15 C404.06,1054.10 396.64,1057.03 395.32,1058.34 C394.96,1058.71 393.62,1059.00 392.33,1059.00 C391.05,1059.00 390.00,1059.38 390.00,1059.83 C390.00,1060.29 389.44,1060.71 388.75,1060.77 C384.83,1061.10 383.00,1061.49 383.00,1062.00 C383.00,1062.32 382.03,1062.65 380.84,1062.74 C379.65,1062.83 378.41,1063.26 378.09,1063.70 C377.77,1064.14 376.71,1064.56 375.75,1064.64 C374.15,1064.77 374.00,1063.40 374.00,1048.82 C374.00,1036.58 374.32,1032.54 375.38,1031.48 C376.14,1030.72 377.04,1030.37 377.38,1030.71 C377.72,1031.05 378.00,1030.78 378.00,1030.11 C378.00,1029.43 378.44,1029.16 378.99,1029.49 C379.53,1029.83 381.89,1028.17 384.24,1025.80 C386.58,1023.43 391.10,1019.52 394.28,1017.10 C403.24,1010.29 402.02,1010.45 391.78,1017.42 C390.74,1018.13 389.72,1018.81 388.70,1019.48 C402.39,1010.02 416.07,996.39 420.72,986.88 C421.62,985.04 422.39,983.65 423.06,982.20 C427.31,972.89 427.00,961.48 426.75,816.61 L 426.50 665.04 L 385.50 721.77 C380.25,729.03 375.16,736.05 370.42,742.56 C382.01,726.59 393.30,710.80 396.26,706.25 C400.67,699.47 398.51,701.32 392.45,709.52 C389.39,713.66 386.50,716.81 386.03,716.52 C385.56,716.23 382.77,719.25 379.83,723.24 L 374.50 730.50 L 374.21 720.63 L 373.92 710.77 L 378.87 703.98 C384.68,696.03 386.38,693.05 385.58,692.24 C385.26,691.92 385.75,690.50 386.67,689.08 C388.26,686.63 388.26,686.57 386.60,687.93 C385.65,688.71 373.70,704.84 359.87,723.99 C374.37,703.86 386.88,686.93 387.77,686.25 C388.65,685.56 388.97,685.00 388.47,685.00 C387.97,685.00 388.56,684.29 389.79,683.43 C391.03,682.57 391.77,681.44 391.45,680.92 C391.13,680.41 391.57,679.72 392.43,679.39 C393.29,679.06 393.76,678.42 393.48,677.96 C393.20,677.51 393.97,676.43 395.21,675.57 C396.44,674.71 397.01,673.99 396.47,673.97 C395.94,673.95 396.49,673.10 397.71,672.09 C398.92,671.08 399.64,669.98 399.31,669.65 C398.98,669.32 399.45,668.76 400.35,668.42 C401.25,668.07 401.75,667.41 401.47,666.95 C401.18,666.48 401.87,665.61 403.00,665.00 C404.13,664.39 404.81,663.49 404.50,663.00 C404.19,662.51 404.87,661.61 406.00,661.00 C407.13,660.39 407.81,659.50 407.51,659.01 C407.21,658.52 407.75,657.66 408.73,657.09 C409.70,656.52 410.17,656.05 409.78,656.03 C409.38,656.01 412.56,651.16 416.86,645.25 C421.15,639.34 425.19,633.52 425.83,632.32 C426.69,630.72 427.00,612.59 427.00,564.57 L 427.00 499.00 L 390.22 499.00 C358.50,499.00 353.14,499.21 351.21,500.56 C352.91,499.38 356.08,499.00 364.33,499.00 C374.31,499.00 375.15,498.85 374.49,497.25 C374.29,496.78 374.14,496.43 374.03,496.07 C373.69,494.92 373.76,493.64 374.06,487.75 C374.21,484.59 374.74,482.00 375.23,482.00 C375.72,482.00 375.84,481.55 375.50,481.00 C375.20,480.52 371.19,480.21 366.02,480.08 C371.60,480.03 378.08,480.00 385.43,480.00 L 427.00 480.00 L 427.00 235.00 L 412.58 235.00 C409.41,235.00 406.34,234.95 403.75,234.88 C407.00,234.86 411.22,234.58 416.50,234.03 C422.56,233.41 421.63,233.29 409.50,233.14 C399.19,233.01 395.89,232.69 397.00,231.89 C398.28,230.97 398.25,230.89 396.80,231.35 C395.69,231.71 394.89,231.22 394.48,229.95 C394.14,228.88 393.43,228.00 392.90,228.00 C392.68,228.00 392.55,228.11 392.51,228.31 C390.91,225.26 388.65,220.70 385.32,213.86 C388.10,219.38 390.03,222.97 390.29,222.97 C390.72,222.99 390.58,222.09 389.99,220.98 C389.39,219.87 389.18,218.52 389.51,217.98 C389.85,217.44 389.61,217.00 389.00,217.00 C388.39,217.00 388.16,216.55 388.50,216.00 C388.84,215.45 388.57,215.00 387.89,215.00 C387.22,215.00 386.95,214.72 387.29,214.37 C387.64,214.03 387.23,212.12 386.38,210.12 C385.53,208.13 384.66,205.60 384.44,204.50 C383.79,201.18 380.76,195.00 379.79,195.00 C379.29,195.00 379.16,194.55 379.50,194.00 C379.84,193.45 379.61,193.00 379.00,193.00 C378.39,193.00 378.16,192.55 378.50,192.00 C378.84,191.45 378.61,191.00 378.00,191.00 C377.39,191.00 377.16,190.55 377.50,190.00 C377.84,189.45 377.57,189.00 376.89,189.00 C376.22,189.00 375.94,188.72 376.28,188.39 C376.62,188.05 376.22,186.09 375.40,184.03 C374.22,181.10 373.98,176.95 374.29,164.90 C374.51,156.43 375.17,147.48 375.76,145.00 C376.51,141.84 376.52,139.16 375.79,136.00 C375.21,133.52 374.54,128.01 374.30,123.75 C373.74,114.09 374.73,113.81 381.88,121.56 C384.69,124.61 387.01,126.75 387.02,126.31 C387.02,125.86 387.47,126.18 388.00,127.00 C389.38,129.14 389.28,126.96 388.09,124.26 C388.33,124.67 388.55,125.08 388.77,125.50 C390.86,129.53 391.45,132.30 391.80,139.75 C392.12,146.43 391.91,149.00 391.06,149.00 C390.41,149.00 390.11,149.37 390.39,149.82 C390.67,150.27 389.94,152.45 388.92,154.81 C388.95,154.26 388.57,154.09 387.80,154.25 C386.27,154.57 381.42,160.15 381.75,161.20 C381.89,161.64 381.55,162.00 381.00,162.00 C380.45,162.00 380.00,163.35 380.00,165.00 C380.00,167.16 380.49,168.02 381.75,168.08 C382.71,168.12 382.96,168.38 382.30,168.65 C380.87,169.23 382.68,174.00 384.33,174.00 C384.88,174.00 385.04,174.29 384.68,174.65 C384.33,175.01 385.14,176.33 386.49,177.58 C387.85,178.84 389.08,180.44 389.23,181.14 C389.38,181.85 389.95,182.96 390.50,183.61 ZM 839.93 592.54 C845.06,589.88 848.00,585.38 848.00,580.17 C847.98,565.00 828.71,560.49 821.70,574.02 C815.94,585.14 828.86,598.26 839.93,592.54 ZM 777.79 684.15 C791.69,674.25 778.89,653.27 763.42,660.61 C753.67,665.23 753.57,680.47 763.26,685.41 C767.39,687.52 773.84,686.96 777.79,684.15 ZM 729.59 842.54 C733.26,840.13 735.99,835.05 736.00,830.62 C736.01,818.33 720.61,812.30 712.32,821.35 C708.55,825.46 707.52,828.64 708.42,833.41 C710.21,842.97 721.50,847.84 729.59,842.54 ZM 659.52 397.58 C665.25,393.82 667.39,385.98 664.30,380.02 C657.36,366.61 638.03,371.14 638.01,386.17 C637.99,396.72 650.62,403.41 659.52,397.58 ZM 796.72 407.01 C797.38,407.01 799.51,405.61 801.45,403.91 C808.05,398.11 808.27,389.51 801.98,383.48 C799.55,381.15 797.90,380.55 793.00,380.19 C787.11,379.77 786.93,379.83 783.00,383.76 C779.29,387.48 779.00,388.17 779.00,393.35 C779.00,398.17 779.42,399.41 782.10,402.46 C785.31,406.12 790.02,408.17 793.50,407.45 C794.60,407.22 796.05,407.02 796.72,407.01 ZM 621.62 152.94 C627.09,150.29 630.57,143.84 629.52,138.27 C628.62,133.46 622.33,127.04 618.37,126.88 C611.25,126.60 606.85,128.56 603.96,133.30 C599.79,140.14 602.65,149.54 610.02,153.25 C614.51,155.50 616.43,155.45 621.62,152.94 ZM 341.20 781.89 L 339.15 784.00 L 319.01 784.00 C307.93,784.00 298.06,784.43 297.08,784.96 C298.06,784.43 307.87,784.00 318.88,784.00 L 319.01 784.00 C337.80,784.00 338.93,783.92 341.20,781.89 ZM 268.07 860.15 C267.81,860.29 267.55,860.42 267.29,860.55 C263.29,862.57 261.35,863.22 256.89,863.41 C260.99,862.92 264.71,861.83 268.07,860.15 ZM 384.14 164.22 C384.35,166.25 385.53,169.52 387.90,174.81 C385.74,170.47 384.00,166.13 384.00,165.07 C384.00,164.84 384.05,164.55 384.14,164.22 ZM 241.26 862.26 C241.29,862.27 241.31,862.28 241.34,862.29 C240.55,862.00 239.77,861.66 238.92,861.25 C232.15,857.91 227.28,853.37 223.78,847.11 C227.47,853.55 233.39,858.99 241.26,862.26 ZM 355.39 107.60 C365.10,106.49 374.95,109.94 382.07,116.64 C379.37,114.24 376.14,112.03 373.06,110.61 C367.29,107.95 361.21,107.01 355.39,107.60 ZM 374.51 1027.68 C368.04,1030.88 361.79,1033.18 355.43,1034.69 C361.59,1033.09 368.18,1030.67 374.51,1027.68 ZM 370.59 1070.17 C375.16,1068.74 382.72,1065.64 389.43,1062.59 C382.69,1065.81 376.01,1068.53 370.59,1070.17 ZM 342.18 1036.72 C339.74,1036.91 337.24,1036.99 334.68,1036.99 C330.54,1036.99 326.52,1036.72 322.56,1036.15 C328.65,1036.90 335.81,1037.10 342.18,1036.72 ZM 365.47 1.51 C360.59,2.34 354.76,3.56 350.07,4.79 C354.95,3.40 359.96,2.32 365.13,1.56 C365.24,1.55 365.36,1.53 365.47,1.51 ZM 220.90 820.46 C222.34,815.51 225.02,811.30 229.20,807.15 C225.21,811.11 222.47,815.67 220.90,820.46 ZM 222.23 844.07 C220.62,840.69 219.96,838.72 219.72,835.66 C220.18,838.54 221.02,841.37 222.23,844.07 ZM 324.80 15.57 C312.23,22.97 300.55,33.11 289.89,45.87 C300.65,32.99 312.21,22.93 324.80,15.57 ZM 285.42 830.98 C285.36,837.38 284.81,840.68 283.22,844.22 C283.16,844.35 283.10,844.48 283.03,844.62 C284.69,840.82 285.36,836.60 285.42,830.98 ZM 330.49 763.51 C328.65,764.96 325.86,765.00 308.12,765.00 C325.29,765.00 328.66,764.81 330.49,763.51 ZM 142.72 612.92 C153.65,612.05 164.04,606.06 169.04,596.64 C164.00,606.12 153.67,612.11 142.72,612.92 ZM 395.56 233.42 C396.19,234.05 397.47,234.48 399.45,234.70 C397.89,234.60 396.84,234.49 396.54,234.38 C396.20,234.25 395.83,233.92 395.25,233.10 C395.35,233.21 395.46,233.32 395.56,233.42 ZM 370.92 39.44 C366.07,40.07 361.40,41.15 356.89,42.69 C358.84,42.00 360.84,41.39 362.86,40.86 C365.12,40.27 367.89,39.80 370.92,39.44 ZM 343.69 746.26 C336.88,755.55 332.04,762.01 331.31,762.75 C331.22,762.84 331.14,762.92 331.06,763.00 C332.31,761.59 337.11,755.21 343.69,746.26 ZM 302.07 1030.31 C288.43,1024.41 274.59,1014.34 258.50,999.07 C274.71,1014.46 288.49,1024.40 302.07,1030.31 ZM 387.33 158.14 C386.64,159.45 385.97,160.56 385.46,161.12 C385.78,160.53 386.13,159.95 386.50,159.40 C386.81,158.95 387.08,158.53 387.33,158.14 ZM 350.03 770.42 C345.35,776.74 342.37,780.70 341.83,781.25 L 341.68 781.40 C342.75,780.15 345.83,776.08 350.03,770.42 ZM 110.30 594.20 C111.88,597.41 114.31,600.62 117.16,603.41 C114.31,600.64 111.89,597.45 110.30,594.20 ZM 358.91 173.85 C358.37,173.79 357.83,173.74 357.28,173.70 C353.41,173.39 350.13,172.75 347.14,171.64 C350.13,172.74 353.41,173.39 357.28,173.69 C357.83,173.74 358.37,173.79 358.91,173.85 ZM 329.15 125.78 C330.33,123.42 331.73,121.27 333.35,119.33 C331.75,121.26 330.33,123.42 329.15,125.78 Z" fill="rgba(204,204,204,1)"/>
<path d="M 215.20 124.64 C216.89,123.95 218.64,123.26 220.46,122.57 C227.03,120.08 234.60,116.68 237.27,115.02 C239.95,113.36 242.55,112.00 243.07,112.00 C243.58,112.00 244.00,111.55 244.00,111.00 C244.00,110.45 244.52,110.00 245.15,110.00 C246.26,110.00 258.07,98.03 257.02,97.97 C256.73,97.95 257.40,97.26 258.50,96.43 C259.60,95.59 260.52,94.60 260.54,94.21 C260.64,92.55 264.14,87.00 265.08,87.00 C265.65,87.00 265.84,86.55 265.50,86.00 C265.16,85.45 265.39,85.00 266.00,85.00 C266.61,85.00 266.84,84.55 266.50,84.00 C266.16,83.45 266.39,83.00 267.00,83.00 C267.61,83.00 267.84,82.55 267.50,82.00 C267.16,81.45 267.39,81.00 268.00,81.00 C268.61,81.00 268.84,80.55 268.50,80.00 C268.16,79.45 268.39,79.00 269.00,79.00 C269.61,79.00 269.84,78.55 269.50,78.00 C269.16,77.45 269.39,77.00 270.00,77.00 C270.61,77.00 270.84,76.55 270.50,76.00 C270.16,75.45 270.39,75.00 271.00,75.00 C271.61,75.00 271.84,74.55 271.50,74.00 C271.16,73.45 271.28,73.00 271.77,73.00 C272.27,73.00 272.67,72.36 272.67,71.58 C272.67,69.71 280.96,57.00 282.18,57.00 C282.69,57.00 282.88,56.61 282.58,56.14 C282.29,55.66 285.58,51.04 289.89,45.87 C306.19,26.34 324.89,12.98 345.50,6.12 C354.06,3.27 373.65,-0.33 375.25,0.66 C375.67,0.91 375.54,1.99 374.98,3.05 C374.36,4.19 374.06,10.96 374.22,19.73 L 374.50 34.50 L 381.28 34.80 C385.26,34.97 387.82,35.49 387.47,36.05 C387.15,36.57 387.92,37.04 389.19,37.08 C393.61,37.24 395.53,37.64 397.51,38.79 C399.13,39.73 398.57,39.83 394.50,39.32 C384.95,38.10 370.76,38.80 362.86,40.86 C337.10,47.60 316.98,67.24 298.84,103.33 C290.91,119.10 281.62,130.51 268.72,140.33 C259.58,147.28 251.51,151.68 239.03,156.45 C245.26,153.94 247.01,152.55 240.40,154.69 C237.70,155.56 232.80,156.79 229.50,157.42 C226.20,158.05 221.59,159.57 219.25,160.80 L 215.00 163.04 L 215.00 146.06 C215.00,129.47 215.05,129.04 217.25,127.83 C218.49,127.15 220.38,126.45 221.46,126.27 C222.53,126.10 223.66,125.62 223.96,125.22 C224.26,124.83 226.07,123.65 228.00,122.62 C233.52,119.66 240.95,114.57 240.97,113.74 C240.99,113.32 238.64,114.31 235.75,115.92 C232.86,117.54 225.56,120.71 219.52,122.97 C218.04,123.52 216.60,124.08 215.20,124.64 ZM 318.00 1074.35 C306.29,1072.56 291.08,1067.57 279.31,1061.65 C270.15,1057.06 252.65,1045.84 251.27,1043.70 C250.85,1043.03 248.70,1041.15 246.50,1039.52 C245.61,1038.86 244.19,1037.68 242.51,1036.24 C243.80,1037.33 244.64,1037.97 244.80,1037.96 C245.19,1037.94 241.23,1033.80 236.00,1028.75 C230.77,1023.71 226.50,1019.11 226.50,1018.54 C226.50,1017.97 223.91,1015.78 220.75,1013.68 L 215.00 1009.85 L 215.00 977.89 L 217.75 978.23 C219.26,978.43 221.42,979.09 222.55,979.72 C223.78,980.40 225.17,980.51 226.01,980.00 C226.78,979.52 227.76,979.35 228.20,979.62 C228.64,979.90 229.00,979.69 229.00,979.16 C229.00,979.03 228.92,978.87 228.79,978.71 C229.30,978.95 229.81,979.18 230.31,979.42 C230.26,979.42 230.23,979.44 230.21,979.46 C229.32,980.35 233.70,983.80 237.12,984.90 C239.11,985.54 242.48,987.39 244.62,989.01 C249.25,992.51 249.97,992.74 247.40,989.88 C246.51,988.89 243.37,986.73 240.01,984.63 C246.54,988.60 252.29,993.17 258.50,999.07 C287.16,1026.27 308.66,1036.98 334.68,1036.99 C354.92,1037.01 371.23,1031.41 391.78,1017.42 C402.02,1010.45 403.24,1010.29 394.28,1017.10 C391.10,1019.52 386.58,1023.43 384.24,1025.80 C381.89,1028.17 379.53,1029.83 378.99,1029.49 C378.44,1029.16 378.00,1029.43 378.00,1030.11 C378.00,1030.78 377.72,1031.05 377.38,1030.71 C377.04,1030.37 376.14,1030.72 375.38,1031.48 C374.32,1032.54 374.00,1036.58 374.00,1048.82 C374.00,1063.40 374.15,1064.77 375.75,1064.64 C376.71,1064.56 377.77,1064.14 378.09,1063.70 C378.41,1063.26 379.65,1062.83 380.84,1062.74 C382.03,1062.65 383.00,1062.32 383.00,1062.00 C383.00,1061.49 384.83,1061.10 388.75,1060.77 C389.44,1060.71 390.00,1060.29 390.00,1059.83 C390.00,1059.38 391.05,1059.00 392.33,1059.00 C393.62,1059.00 394.96,1058.71 395.32,1058.34 C396.64,1057.03 404.06,1054.10 403.41,1055.15 C402.15,1057.19 378.54,1067.90 369.71,1070.43 C350.65,1075.91 335.62,1077.05 318.00,1074.35 ZM 180.35 265.75 C180.95,266.72 192.10,267.00 230.51,267.00 L 279.91 267.00 L 281.58 269.25 C282.50,270.49 291.20,289.47 300.91,311.44 L 318.57 351.38 L 325.61 352.56 C335.01,354.15 340.99,356.94 346.25,362.20 C353.38,369.33 355.50,374.78 355.50,386.00 C355.49,394.35 355.17,396.11 352.83,400.55 C349.44,406.98 343.19,413.23 337.19,416.19 C330.44,419.52 315.61,419.51 308.86,416.18 C301.47,412.52 296.37,407.50 292.90,400.44 C287.59,389.65 288.59,376.94 295.52,367.34 C300.31,360.71 300.48,360.19 299.27,356.10 C297.04,348.54 269.88,289.42 267.88,287.75 C265.95,286.14 262.23,286.00 222.00,286.00 L 215.08 286.00 L 214.88 283.75 C214.78,282.51 214.76,278.91 214.84,275.75 L 215.00 270.00 L 220.00 270.00 C222.75,270.00 225.00,269.57 225.00,269.04 C225.00,268.52 228.49,267.93 232.75,267.74 C237.01,267.56 227.14,267.31 210.81,267.20 C188.33,267.05 180.93,266.70 180.35,265.75 ZM 241.26 862.26 C240.65,862.00 240.05,861.73 239.46,861.45 C241.52,862.33 243.83,862.95 245.00,862.91 C247.09,862.83 246.93,862.66 244.00,861.82 C242.07,861.28 239.79,860.19 238.92,859.41 C238.05,858.64 236.97,858.00 236.52,858.00 C236.06,858.00 234.14,856.82 232.24,855.37 C229.11,852.98 226.32,848.27 225.49,843.97 C225.32,843.06 224.64,840.54 223.99,838.36 C222.69,834.01 223.11,825.38 225.02,817.28 C225.91,813.53 227.36,810.93 230.21,808.02 C232.39,805.80 234.58,804.24 235.09,804.56 C235.60,804.87 236.27,804.45 236.59,803.63 C237.36,801.61 242.19,799.93 250.00,798.96 L 256.50 798.16 L 249.50 798.36 C248.28,798.39 247.11,798.47 245.99,798.61 C247.92,798.33 250.07,798.15 252.50,798.02 C261.77,797.54 262.70,797.30 265.23,794.73 C266.73,793.20 267.97,791.63 268.00,791.23 C268.08,789.84 279.20,775.00 280.16,775.00 C280.69,775.00 280.88,774.62 280.59,774.14 C280.30,773.67 281.66,771.42 283.61,769.14 L 287.16 765.00 L 308.12 765.00 C328.54,765.00 329.15,764.94 331.31,762.75 C332.53,761.51 345.08,744.50 359.19,724.93 C373.30,705.37 385.64,688.72 386.60,687.93 C388.26,686.57 388.26,686.63 386.67,689.08 C385.75,690.50 385.26,691.92 385.58,692.24 C386.38,693.05 384.68,696.03 378.87,703.98 L 373.92 710.77 L 374.21 720.63 L 374.50 730.50 L 379.83 723.24 C382.77,719.25 385.56,716.23 386.03,716.52 C386.50,716.81 389.39,713.66 392.45,709.52 C398.51,701.32 400.67,699.47 396.26,706.25 C389.80,716.19 343.62,779.70 341.36,781.75 C338.97,783.93 338.23,784.00 318.88,784.00 C307.87,784.00 298.06,784.43 297.08,784.96 C295.65,785.72 282.86,802.44 279.64,807.75 C279.20,808.47 280.28,811.87 282.19,815.74 C285.19,821.83 285.49,823.27 285.42,830.98 C285.32,841.05 283.24,846.61 277.09,853.29 C271.03,859.86 263.27,863.28 253.50,863.68 C247.55,863.93 244.41,863.56 241.26,862.26 ZM 237.07 579.71 C237.78,578.50 238.53,577.17 239.34,575.72 C240.80,573.09 242.73,569.82 243.61,568.47 C244.50,567.11 245.00,566.00 244.72,566.00 C244.45,566.00 241.00,570.94 237.07,576.97 C230.14,587.59 228.00,590.22 228.00,588.11 C228.00,587.55 225.19,586.96 221.75,586.80 L 215.50 586.50 L 215.20 581.41 C214.90,576.23 216.04,574.11 219.40,573.62 C222.02,573.23 224.64,570.11 226.04,565.74 C226.79,563.41 229.58,557.94 232.25,553.59 C238.54,543.33 239.83,540.65 236.67,544.37 C236.20,544.92 235.41,546.03 234.42,547.47 C236.22,544.69 237.66,542.60 238.19,542.03 C239.12,541.03 239.61,539.94 239.27,539.61 C238.94,539.27 239.16,539.00 239.77,539.00 C240.38,539.00 240.81,538.10 240.73,537.00 C240.64,535.90 240.17,535.00 239.68,535.00 C239.19,535.00 239.03,534.35 239.34,533.56 C239.64,532.78 239.52,531.99 239.07,531.81 C238.49,531.59 237.43,529.90 233.59,522.05 C236.23,527.10 238.46,530.87 238.69,530.64 C238.94,530.39 238.46,528.85 237.61,527.22 C236.77,525.59 236.36,523.97 236.71,523.63 C237.05,523.28 236.78,523.00 236.11,523.00 C235.43,523.00 235.16,522.55 235.50,522.00 C235.84,521.45 235.61,521.00 235.00,521.00 C234.39,521.00 234.16,520.55 234.50,520.00 C234.84,519.45 234.61,519.00 234.00,519.00 C233.39,519.00 233.16,518.55 233.50,518.00 C233.84,517.45 233.70,517.00 233.19,517.00 C232.24,517.00 228.63,508.67 228.42,505.99 C228.35,505.15 227.57,503.08 226.69,501.37 C225.81,499.67 224.85,496.97 224.57,495.39 C224.28,493.81 223.58,492.36 223.02,492.17 C222.45,491.98 222.24,491.42 222.55,490.91 C222.86,490.41 222.61,490.00 222.00,490.00 C221.39,490.00 221.16,489.55 221.50,489.00 C221.84,488.45 221.61,488.00 221.00,488.00 C220.39,488.00 220.16,487.55 220.50,487.00 C220.84,486.45 220.66,486.00 220.09,486.00 C219.53,486.00 219.32,485.33 219.64,484.50 C219.95,483.67 219.69,483.00 219.05,483.00 C218.41,483.00 218.16,482.55 218.50,482.00 C218.84,481.45 218.57,481.00 217.89,481.00 C217.22,481.00 216.93,480.74 217.25,480.42 C217.57,480.10 217.19,478.31 216.41,476.45 C214.63,472.17 214.44,446.05 216.22,449.75 C216.82,450.99 217.71,452.00 218.21,452.00 C218.71,452.00 218.84,452.45 218.50,453.00 C218.16,453.55 218.39,454.00 219.00,454.00 C219.61,454.00 219.84,454.45 219.50,455.00 C219.16,455.55 219.39,456.00 220.00,456.00 C220.61,456.00 220.84,456.45 220.50,457.00 C220.16,457.55 220.39,458.00 221.00,458.00 C221.61,458.00 221.84,458.45 221.50,459.00 C221.16,459.55 221.36,460.00 221.94,460.00 C222.52,460.00 222.93,460.34 222.84,460.75 C222.47,462.43 224.28,466.95 225.11,466.43 C225.60,466.13 226.00,466.34 226.00,466.89 C226.00,467.44 227.14,469.13 228.54,470.63 C229.93,472.14 230.84,473.96 230.57,474.68 C230.29,475.41 230.53,476.00 231.09,476.00 C231.66,476.00 231.88,476.39 231.58,476.87 C231.28,477.35 231.85,478.68 232.85,479.82 C233.84,480.97 235.48,483.73 236.48,485.95 C237.48,488.18 238.71,490.00 239.22,490.00 C239.33,490.00 239.39,489.92 239.41,489.77 C241.73,494.74 243.38,498.25 243.96,499.50 C250.20,512.84 257.32,526.54 258.38,527.23 C259.76,528.14 300.18,528.25 302.51,527.36 C303.43,527.00 312.24,516.67 322.08,504.40 C331.93,492.12 340.86,481.61 341.92,481.04 C344.46,479.68 374.66,479.65 375.50,481.00 C375.84,481.55 375.72,482.00 375.23,482.00 C374.74,482.00 374.21,484.59 374.06,487.75 C373.76,493.64 373.69,494.92 374.03,496.07 C374.14,496.43 374.29,496.78 374.49,497.25 C375.15,498.85 374.31,499.00 364.33,499.00 C356.08,499.00 352.91,499.38 351.21,500.56 C349.99,501.42 341.50,511.43 332.36,522.81 C323.21,534.19 314.84,544.29 313.75,545.25 C311.99,546.82 309.18,547.00 287.04,547.00 C271.92,547.00 261.09,547.42 259.20,548.08 C256.65,548.97 254.16,552.32 244.89,567.33 C242.11,571.83 239.36,576.18 237.07,579.71 ZM 378.50 199.91 C372.45,187.23 366.83,176.28 366.00,175.56 C365.17,174.85 361.25,174.01 357.28,173.69 C348.30,172.98 342.48,170.46 336.16,164.56 C325.57,154.64 322.68,138.69 329.15,125.78 C337.26,109.58 356.45,102.95 373.06,110.61 C378.91,113.31 385.29,118.84 387.58,123.20 C389.22,126.32 389.56,129.42 388.00,127.00 C387.47,126.18 387.02,125.86 387.02,126.31 C387.01,126.75 384.69,124.61 381.88,121.56 C374.73,113.81 373.74,114.09 374.30,123.75 C374.54,128.01 375.21,133.52 375.79,136.00 C376.52,139.16 376.51,141.84 375.76,145.00 C375.17,147.48 374.51,156.43 374.29,164.90 C373.98,176.95 374.22,181.10 375.40,184.03 C376.22,186.09 376.62,188.05 376.28,188.39 C375.94,188.72 376.22,189.00 376.89,189.00 C377.57,189.00 377.84,189.45 377.50,190.00 C377.16,190.55 377.39,191.00 378.00,191.00 C378.61,191.00 378.84,191.45 378.50,192.00 C378.16,192.55 378.39,193.00 379.00,193.00 C379.61,193.00 379.84,193.45 379.50,194.00 C379.16,194.55 379.29,195.00 379.79,195.00 C380.76,195.00 383.79,201.18 384.44,204.50 C384.66,205.60 385.53,208.13 386.38,210.12 C387.23,212.12 387.64,214.03 387.29,214.37 C386.95,214.72 387.22,215.00 387.89,215.00 C388.57,215.00 388.84,215.45 388.50,216.00 C388.16,216.55 388.39,217.00 389.00,217.00 C389.61,217.00 389.85,217.44 389.51,217.98 C389.18,218.52 389.39,219.87 389.99,220.98 C390.58,222.09 390.72,222.99 390.29,222.97 C389.85,222.96 384.55,212.58 378.50,199.91 ZM 237.36 665.51 C238.30,669.73 238.43,674.11 237.74,678.38 C237.72,678.28 237.71,678.18 237.68,678.10 C237.42,677.06 236.81,677.72 235.92,680.00 C235.18,681.92 234.66,683.84 234.78,684.25 C234.90,684.66 234.56,685.00 234.03,685.00 C233.50,685.00 233.29,685.59 233.57,686.32 C233.85,687.04 232.67,689.40 230.95,691.57 C227.03,696.50 226.52,696.94 227.32,694.71 C227.82,693.33 227.13,693.55 224.23,695.71 C222.18,697.25 220.35,698.84 220.16,699.26 C219.98,699.67 219.42,699.76 218.91,699.45 C218.41,699.14 218.00,699.34 218.00,699.91 C218.00,700.47 217.32,700.68 216.50,700.36 C215.39,699.94 215.00,698.19 215.00,693.69 C215.00,688.22 215.32,687.27 218.12,684.37 C221.00,681.41 223.38,674.03 220.99,675.51 C220.44,675.84 220.00,675.55 220.00,674.85 C220.00,674.23 219.20,675.29 218.15,677.25 C218.69,675.84 218.99,674.39 218.99,673.00 C218.99,671.51 218.68,670.03 218.13,668.62 C219.14,670.29 220.25,671.42 220.80,671.23 C222.28,670.74 222.40,666.00 220.94,666.00 C220.36,666.00 220.12,665.62 220.41,665.15 C220.69,664.69 219.59,663.03 217.96,661.47 C215.30,658.92 215.00,657.99 215.00,652.42 C215.00,645.94 216.54,643.72 219.22,646.33 C221.43,648.46 227.46,652.50 228.45,652.50 C230.11,652.50 235.01,660.37 235.61,664.00 C235.93,665.93 236.54,669.53 236.96,672.00 L 237.73 676.50 L 237.87 671.29 C237.92,669.37 237.74,667.43 237.36,665.51 ZM 259.14 843.05 C261.54,841.97 263.54,840.74 263.59,840.30 C263.64,839.86 264.45,837.77 265.40,835.65 C270.31,824.62 258.48,813.44 246.66,817.94 C242.46,819.54 238.83,825.31 238.75,830.51 C238.67,835.70 240.72,839.16 245.99,842.75 C250.05,845.51 253.46,845.59 259.14,843.05 ZM 364.66 153.36 C372.35,149.71 375.12,141.43 371.14,133.98 C364.12,120.87 343.80,127.07 345.33,141.86 C345.86,147.05 348.30,150.62 353.02,153.15 C357.27,155.43 360.18,155.48 364.66,153.36 ZM 330.59 397.54 C341.62,390.31 337.31,373.50 324.10,372.24 C308.71,370.76 303.18,391.14 317.02,398.30 C321.05,400.39 326.72,400.07 330.59,397.54 ZM 390.50 183.61 C389.95,182.96 389.38,181.85 389.23,181.14 C389.08,180.44 387.85,178.84 386.49,177.58 C385.14,176.33 384.33,175.01 384.68,174.65 C385.04,174.29 384.88,174.00 384.33,174.00 C382.68,174.00 380.87,169.23 382.30,168.65 C382.96,168.38 382.71,168.12 381.75,168.08 C380.49,168.02 380.00,167.16 380.00,165.00 C380.00,163.35 380.45,162.00 381.00,162.00 C381.55,162.00 381.89,161.64 381.75,161.20 C381.42,160.15 386.27,154.57 387.80,154.25 C389.63,153.87 389.25,155.35 386.50,159.40 C385.12,161.43 384.00,163.98 384.00,165.07 C384.00,166.15 385.82,170.67 388.05,175.11 C391.79,182.53 392.93,186.50 390.50,183.61 ZM 395.56 233.42 C393.27,231.13 391.73,228.00 392.90,228.00 C393.43,228.00 394.14,228.88 394.48,229.95 C394.89,231.22 395.69,231.71 396.80,231.35 C398.25,230.89 398.28,230.97 397.00,231.89 C395.89,232.69 399.19,233.01 409.50,233.14 C421.63,233.29 422.56,233.41 416.50,234.03 C403.83,235.33 397.28,235.14 395.56,233.42 ZM 241.15 840.52 C242.86,842.47 244.53,843.80 244.85,843.48 C245.18,843.16 245.00,842.58 244.45,842.20 C243.91,841.81 242.30,840.07 240.86,838.33 C238.69,835.68 238.32,834.37 238.65,830.48 C238.86,827.91 239.54,824.83 240.16,823.65 C241.28,821.52 241.27,821.52 239.15,823.40 C237.97,824.45 237.00,826.14 237.00,827.15 C237.00,828.17 236.55,829.00 236.00,829.00 C235.45,829.00 235.00,829.67 235.00,830.50 C235.00,831.33 235.40,832.00 235.89,832.00 C236.38,832.00 237.06,833.12 237.41,834.48 C237.75,835.85 239.43,838.56 241.15,840.52 ZM 396.00 4.04 C396.00,3.47 395.23,3.00 394.30,3.00 C393.00,3.00 392.88,2.72 393.77,1.83 C394.54,1.06 395.59,0.97 396.89,1.58 C398.55,2.37 398.63,2.69 397.42,3.79 C396.60,4.54 396.00,4.64 396.00,4.04 ZM 200.85 180.69 C189.82,193.62 182.69,210.89 179.91,231.76 C182.75,210.45 189.65,193.52 200.85,180.69 ZM 219.72 835.66 C218.92,830.62 219.28,825.41 220.90,820.46 C220.02,823.47 219.61,826.76 219.59,830.47 C219.58,832.60 219.61,834.24 219.72,835.66 ZM 202.73 590.04 C218.69,590.05 226.33,589.85 229.33,589.28 C226.84,590.05 221.13,590.05 202.73,590.04 ZM 140.95 931.35 C144.74,934.99 148.88,938.50 153.40,941.92 C158.25,945.59 163.22,948.96 168.46,952.13 C157.89,945.81 148.73,938.90 140.95,931.35 ZM 227.99 510.39 C224.48,503.01 219.82,493.12 213.61,479.89 C220.16,493.80 225.38,504.79 226.25,506.49 C227.21,508.38 227.92,509.97 227.99,510.39 ZM 190.51 963.53 C197.16,966.48 204.37,969.32 212.36,972.16 C214.47,972.91 216.48,973.65 218.40,974.38 C216.12,973.57 213.56,972.65 210.99,971.73 C203.77,969.15 196.94,966.41 190.51,963.53 ZM 191.47 669.79 C191.78,668.60 192.28,667.41 192.99,666.24 C195.02,662.92 197.81,660.78 200.84,659.79 C196.48,661.40 192.74,665.36 191.47,669.79 ZM 207.48 466.87 C197.90,446.56 190.17,430.42 189.51,429.40 C189.24,428.99 188.95,428.65 188.56,428.36 C188.95,428.65 189.24,428.99 189.51,429.40 C190.26,430.55 198.34,447.40 207.48,466.87 ZM 199.28 685.52 C196.20,684.01 193.64,681.37 192.24,678.23 C193.68,681.30 196.25,683.96 199.28,685.52 ZM 234.66 158.13 C231.69,159.30 228.57,160.63 225.89,161.86 C228.69,160.50 231.61,159.26 234.66,158.13 ZM 229.20 807.15 C232.83,803.56 235.98,801.35 240.00,799.98 C236.14,801.35 232.73,803.66 229.20,807.15 ZM 234.47 688.37 C233.04,691.15 231.20,693.74 228.94,696.06 C230.95,694.00 232.91,691.20 234.47,688.37 ZM 223.61 456.02 C223.76,456.35 223.92,456.67 224.07,457.00 C226.48,462.15 228.86,467.23 231.09,472.00 C228.79,467.16 226.21,461.64 223.61,456.02 ZM 222.51 566.16 C221.31,567.91 220.38,569.16 219.94,569.56 C219.83,569.65 219.73,569.74 219.61,569.82 L 220.95 568.25 C221.31,567.83 221.85,567.10 222.51,566.16 ZM 175.37 151.25 C181.54,144.75 187.70,139.53 194.80,134.99 C187.73,139.53 181.49,144.80 175.37,151.25 ZM 210.62 685.60 C209.39,686.22 208.14,686.60 206.89,686.79 C208.13,686.55 209.48,686.12 210.62,685.60 ZM 223.83 847.20 C223.24,846.18 222.70,845.13 222.23,844.07 C222.41,844.45 222.61,844.86 222.82,845.29 C223.14,845.94 223.48,846.58 223.83,847.20 ZM 235.04 1029.54 C235.35,1029.83 235.66,1030.12 235.97,1030.40 C235.45,1029.93 234.95,1029.46 234.45,1028.99 C234.65,1029.17 234.84,1029.35 235.04,1029.54 Z" fill="rgba(218,218,218,1)"/>
<path d="M 235.04 1029.54 C223.61,1018.87 215.78,1014.22 198.92,1008.10 C172.05,998.35 153.72,989.05 133.74,975.01 C124.51,968.53 98.18,943.48 99.36,942.30 C99.71,941.96 99.08,941.05 97.98,940.27 C96.87,939.50 96.23,938.44 96.54,937.93 C96.86,937.42 96.67,937.00 96.13,937.00 C95.02,937.00 91.29,932.10 90.81,930.01 C90.64,929.27 89.70,927.83 88.71,926.80 C87.73,925.77 87.20,924.49 87.52,923.96 C87.85,923.43 87.61,923.00 87.00,923.00 C86.39,923.00 86.16,922.55 86.50,922.00 C86.84,921.45 86.61,921.00 86.00,921.00 C85.39,921.00 85.16,920.55 85.50,920.00 C85.84,919.45 85.61,919.00 85.00,919.00 C84.39,919.00 84.16,918.55 84.50,918.00 C84.84,917.45 84.61,917.00 84.00,917.00 C83.39,917.00 83.16,916.55 83.50,916.00 C83.84,915.45 83.67,915.00 83.13,915.00 C82.08,915.00 81.20,912.85 80.38,908.29 C80.10,906.79 79.40,904.99 78.82,904.28 C78.23,903.58 78.09,903.00 78.50,903.00 C78.91,903.00 78.68,902.33 78.00,901.50 C77.32,900.67 77.09,900.00 77.50,900.00 C77.91,900.00 77.68,899.33 77.00,898.50 C76.32,897.67 76.15,896.99 76.63,896.98 C77.11,896.98 76.90,896.59 76.16,896.12 C75.42,895.65 74.75,893.41 74.66,891.14 C74.57,888.87 74.11,887.01 73.64,887.01 C73.16,887.00 72.97,885.66 73.21,884.02 C73.45,882.39 73.18,880.89 72.61,880.70 C72.19,880.56 71.89,878.19 71.71,873.95 C72.54,876.98 73.00,876.40 73.00,872.30 C73.00,869.70 72.69,868.91 71.94,869.66 C71.80,869.80 71.69,870.00 71.60,870.25 C71.56,868.44 71.54,866.41 71.53,864.18 C71.51,855.28 71.22,848.00 70.88,848.00 C70.54,848.00 69.98,846.31 69.63,844.25 C68.73,838.82 66.97,834.70 62.24,828.89 C64.15,831.13 65.46,832.85 65.96,833.85 C67.16,836.24 68.36,837.97 68.64,837.69 C69.88,836.45 64.07,827.88 56.92,820.42 C52.62,815.92 48.93,812.41 48.73,812.61 C48.53,812.81 46.82,811.35 44.93,809.36 C42.16,806.44 41.96,805.98 43.88,806.98 C45.36,807.74 43.79,805.38 39.72,800.72 C36.13,796.60 32.70,792.32 32.10,791.19 C30.62,788.42 30.52,481.40 32.00,477.50 C32.56,476.02 34.81,471.80 37.01,468.11 C43.51,457.16 45.04,449.74 45.68,426.00 C45.99,414.73 46.00,405.73 45.70,406.00 C45.41,406.28 44.94,413.93 44.67,423.00 C44.42,431.06 44.06,436.80 43.07,442.01 C44.10,436.37 44.39,430.01 44.60,420.50 C44.76,412.78 45.05,405.97 45.50,399.76 C45.64,399.91 45.82,400.00 46.00,400.00 C46.55,400.00 46.99,398.54 46.98,396.75 C46.97,394.28 46.74,393.86 46.00,395.00 C45.95,395.07 45.91,395.15 45.87,395.22 C46.25,390.96 46.73,386.95 47.32,383.07 C46.91,386.12 46.79,388.52 47.01,390.00 C47.23,391.42 48.89,384.42 50.93,373.50 C54.98,351.86 62.46,332.90 74.59,313.50 L 77.09 309.50 L 74.00 313.00 C71.67,315.65 68.05,321.98 64.47,329.28 C69.84,318.28 75.42,309.00 77.31,309.00 C77.87,309.00 78.04,308.71 77.68,308.35 C77.32,307.99 77.81,307.13 78.77,306.43 C79.72,305.73 80.50,304.70 80.50,304.14 C80.50,303.58 82.04,301.75 83.93,300.06 C85.82,298.38 86.94,297.00 86.44,297.00 C84.82,297.00 102.22,281.18 110.03,275.55 C114.17,272.56 122.05,267.80 127.53,264.96 C135.15,261.01 138.47,259.49 139.91,256.92 C141.16,254.68 141.01,251.66 141.02,245.60 C141.08,208.46 153.54,174.24 175.37,151.25 C187.69,138.28 200.48,130.08 219.52,122.97 C225.56,120.71 232.86,117.54 235.75,115.92 C238.64,114.31 240.99,113.32 240.97,113.74 C240.95,114.57 233.52,119.66 228.00,122.62 C226.07,123.65 224.26,124.83 223.96,125.22 C223.66,125.62 222.53,126.10 221.46,126.27 C220.38,126.45 218.49,127.15 217.25,127.83 C215.05,129.04 215.00,129.47 215.00,146.06 L 215.00 163.04 L 219.25 160.80 C221.59,159.57 226.20,158.05 229.50,157.42 C232.80,156.79 237.70,155.56 240.40,154.69 C248.27,152.14 244.28,154.59 235.00,158.00 C202.91,169.78 184.96,193.82 179.91,231.76 C178.72,240.71 179.01,263.59 180.35,265.75 C180.93,266.70 188.33,267.05 210.81,267.20 C227.14,267.31 237.01,267.56 232.75,267.74 C228.49,267.93 225.00,268.52 225.00,269.04 C225.00,269.57 222.75,270.00 220.00,270.00 L 215.00 270.00 L 214.84 275.75 C214.76,278.91 214.78,282.51 214.88,283.75 L 215.08 286.00 L 178.22 286.00 L 166.36 290.08 C122.07,305.34 96.44,334.95 85.95,383.00 C84.32,390.45 83.69,398.31 83.02,419.50 C82.82,425.64 82.60,430.94 82.30,435.64 C82.25,435.50 82.20,435.36 82.15,435.21 C81.23,432.71 81.15,432.85 81.11,437.00 C81.07,440.40 81.25,441.07 81.98,439.91 C80.42,458.49 77.02,467.28 67.45,484.31 C64.61,489.36 62.13,494.31 59.99,499.26 C60.70,497.57 61.41,495.99 62.11,494.55 C66.52,485.52 67.28,482.24 63.38,489.00 C60.56,493.90 52.08,514.02 51.41,517.40 C51.18,518.56 50.29,523.55 49.43,528.50 C48.57,533.45 47.45,537.65 46.93,537.83 C46.42,538.02 46.00,538.83 46.00,539.64 C46.00,540.45 46.45,540.84 47.00,540.50 C47.55,540.16 48.03,540.70 48.07,541.69 C48.13,543.31 48.23,543.29 49.00,541.50 C49.47,540.40 49.89,538.24 49.93,536.71 C50.02,532.93 51.17,526.98 52.89,520.47 C50.22,531.60 49.01,543.30 49.02,556.50 C49.03,566.85 49.96,577.51 51.69,587.77 C51.20,585.18 50.79,582.70 50.47,580.44 C49.63,574.49 48.68,569.36 48.34,569.06 C47.34,568.13 49.00,586.03 50.57,593.00 C52.73,602.59 59.39,622.35 61.27,624.75 C63.15,627.15 62.96,625.96 60.60,620.64 C59.76,618.74 58.82,616.06 57.84,612.90 C58.40,614.57 58.98,616.22 59.58,617.82 C62.37,625.24 64.81,628.12 76.50,637.83 C80.90,641.48 88.14,647.68 92.58,651.60 C97.27,655.74 99.68,658.23 102.61,659.74 C107.68,662.34 114.29,661.96 137.03,662.00 C154.34,662.03 169.48,662.04 170.68,662.03 C172.25,662.01 173.86,660.35 176.47,656.05 C183.97,643.70 196.35,637.95 210.60,640.18 C218.04,641.35 223.34,644.19 229.09,650.09 C234.83,655.98 238.06,663.79 237.87,671.29 L 237.73 676.50 L 236.96 672.00 C236.54,669.53 235.93,665.93 235.61,664.00 C235.01,660.37 230.11,652.50 228.45,652.50 C227.46,652.50 221.43,648.46 219.22,646.33 C216.54,643.72 215.00,645.94 215.00,652.42 C215.00,657.99 215.30,658.92 217.96,661.47 C219.59,663.03 220.69,664.69 220.41,665.15 C220.12,665.62 220.36,666.00 220.94,666.00 C222.40,666.00 222.28,670.74 220.80,671.23 C220.15,671.45 218.68,669.80 217.55,667.57 C212.17,656.94 199.10,656.23 192.99,666.24 C185.74,678.14 200.51,692.44 212.10,684.74 C213.97,683.50 216.51,680.48 217.75,678.03 C218.99,675.58 220.00,674.15 220.00,674.85 C220.00,675.55 220.44,675.84 220.99,675.51 C223.38,674.03 221.00,681.41 218.12,684.37 C215.32,687.27 215.00,688.22 215.00,693.69 C215.00,698.19 215.39,699.94 216.50,700.36 C217.32,700.68 218.00,700.47 218.00,699.91 C218.00,699.34 218.41,699.14 218.91,699.45 C219.42,699.76 219.98,699.67 220.16,699.26 C220.35,698.84 222.18,697.25 224.23,695.71 C227.13,693.55 227.82,693.33 227.32,694.71 C226.52,696.94 227.03,696.50 230.95,691.57 C232.67,689.40 233.85,687.04 233.57,686.32 C233.29,685.59 233.50,685.00 234.03,685.00 C234.56,685.00 234.90,684.66 234.78,684.25 C234.66,683.84 235.18,681.92 235.92,680.00 C236.81,677.72 237.42,677.06 237.68,678.10 C238.53,681.43 233.87,691.00 228.94,696.06 C222.60,702.57 216.60,705.21 206.87,705.79 C193.15,706.60 182.76,700.94 176.05,689.00 L 172.40 682.50 L 135.45 682.00 C113.55,681.70 97.82,681.09 96.83,680.50 C95.92,679.95 92.54,677.20 89.33,674.39 C82.43,668.33 76.74,663.37 72.10,659.37 C77.91,664.36 82.37,667.97 82.55,667.78 C82.76,667.57 76.87,662.10 69.46,655.63 C59.84,647.23 55.48,644.03 54.21,644.43 C52.59,644.95 49.54,649.04 48.94,651.50 C48.80,652.05 48.13,653.85 47.44,655.49 C46.74,657.13 46.39,658.82 46.65,659.24 C46.91,659.66 46.61,660.00 46.00,660.00 C45.39,660.00 45.14,660.41 45.44,660.91 C45.75,661.41 44.92,664.00 43.60,666.66 C39.14,675.63 37.55,686.51 37.54,708.00 C37.53,720.96 37.98,729.34 38.87,733.00 C40.33,738.97 44.69,749.13 46.22,750.11 C46.74,750.45 47.19,751.12 47.22,751.61 C47.31,753.16 49.36,757.41 51.20,759.87 C52.17,761.17 52.73,762.63 52.43,763.12 C52.13,763.60 52.28,764.00 52.77,764.00 C53.26,764.00 55.19,766.14 57.06,768.75 C58.93,771.36 64.02,777.21 68.37,781.75 C72.72,786.29 76.49,790.00 76.76,790.00 C77.42,790.00 76.10,788.49 69.62,781.83 C66.63,778.75 63.86,775.57 61.33,772.29 C66.00,778.04 72.43,784.52 82.91,794.50 C95.09,806.11 102.43,818.28 106.56,833.75 C107.42,836.95 108.50,847.48 109.01,857.50 C110.05,878.20 111.94,887.16 117.94,899.71 C132.98,931.16 163.40,954.71 210.99,971.73 C217.87,974.19 224.74,976.65 226.25,977.20 C227.76,977.75 229.00,978.63 229.00,979.16 C229.00,979.69 228.64,979.90 228.20,979.62 C227.76,979.35 226.78,979.52 226.01,980.00 C225.17,980.51 223.78,980.40 222.55,979.72 C221.42,979.09 219.26,978.43 217.75,978.23 L 215.00 977.89 L 215.00 1009.85 L 220.75 1013.68 C223.91,1015.78 226.50,1017.97 226.50,1018.54 C226.50,1019.11 230.77,1023.71 236.00,1028.75 C241.23,1033.80 245.19,1037.94 244.80,1037.96 C244.42,1037.98 240.03,1034.19 235.04,1029.54 ZM 232.95 520.80 C230.04,515.13 227.80,510.50 227.98,510.50 C228.15,510.50 227.38,508.70 226.25,506.49 C225.12,504.28 216.70,486.51 207.54,466.99 C198.37,447.47 190.26,430.56 189.51,429.40 C188.41,427.70 186.77,427.19 180.88,426.69 C162.21,425.13 149.00,411.38 149.00,393.50 C149.00,380.75 156.37,368.91 167.80,363.30 C172.75,360.87 174.64,360.51 182.19,360.55 C190.08,360.59 191.50,360.91 197.65,364.05 C206.06,368.33 211.16,374.60 214.15,384.35 C217.31,394.62 216.09,402.26 209.79,411.68 C208.26,413.98 207.00,416.93 207.00,418.23 C207.00,420.24 231.98,474.85 238.11,486.25 C239.22,488.31 239.72,490.00 239.22,490.00 C238.71,490.00 237.48,488.18 236.48,485.95 C235.48,483.73 233.84,480.97 232.85,479.82 C231.85,478.68 231.28,477.35 231.58,476.87 C231.88,476.39 231.66,476.00 231.09,476.00 C230.53,476.00 230.29,475.41 230.57,474.68 C230.84,473.96 229.93,472.14 228.54,470.63 C227.14,469.13 226.00,467.44 226.00,466.89 C226.00,466.34 225.60,466.13 225.11,466.43 C224.28,466.95 222.47,462.43 222.84,460.75 C222.93,460.34 222.52,460.00 221.94,460.00 C221.36,460.00 221.16,459.55 221.50,459.00 C221.84,458.45 221.61,458.00 221.00,458.00 C220.39,458.00 220.16,457.55 220.50,457.00 C220.84,456.45 220.61,456.00 220.00,456.00 C219.39,456.00 219.16,455.55 219.50,455.00 C219.84,454.45 219.61,454.00 219.00,454.00 C218.39,454.00 218.16,453.55 218.50,453.00 C218.84,452.45 218.71,452.00 218.21,452.00 C217.71,452.00 216.82,450.99 216.22,449.75 C214.44,446.05 214.63,472.17 216.41,476.45 C217.19,478.31 217.57,480.10 217.25,480.42 C216.93,480.74 217.22,481.00 217.89,481.00 C218.57,481.00 218.84,481.45 218.50,482.00 C218.16,482.55 218.41,483.00 219.05,483.00 C219.69,483.00 219.95,483.67 219.64,484.50 C219.32,485.33 219.53,486.00 220.09,486.00 C220.66,486.00 220.84,486.45 220.50,487.00 C220.16,487.55 220.39,488.00 221.00,488.00 C221.61,488.00 221.84,488.45 221.50,489.00 C221.16,489.55 221.39,490.00 222.00,490.00 C222.61,490.00 222.86,490.41 222.55,490.91 C222.24,491.42 222.45,491.98 223.02,492.17 C223.58,492.36 224.28,493.81 224.57,495.39 C224.85,496.97 225.81,499.67 226.69,501.37 C227.57,503.08 228.35,505.15 228.42,505.99 C228.63,508.67 232.24,517.00 233.19,517.00 C233.70,517.00 233.84,517.45 233.50,518.00 C233.16,518.55 233.39,519.00 234.00,519.00 C234.61,519.00 234.84,519.45 234.50,520.00 C234.16,520.55 234.39,521.00 235.00,521.00 C235.61,521.00 235.84,521.45 235.50,522.00 C235.16,522.55 235.43,523.00 236.11,523.00 C236.78,523.00 237.05,523.28 236.71,523.63 C236.36,523.97 236.77,525.59 237.61,527.22 C238.46,528.85 238.94,530.39 238.69,530.64 C238.44,530.89 235.86,526.46 232.95,520.80 ZM 128.30 610.90 C121.27,608.20 113.74,601.21 110.30,594.20 C107.90,589.31 107.50,587.29 107.50,580.00 C107.50,572.85 107.93,570.58 110.20,565.74 C111.69,562.57 113.60,559.71 114.44,559.38 C115.29,559.06 115.76,558.43 115.49,557.98 C114.78,556.84 122.03,551.31 127.17,549.08 C133.87,546.17 140.89,545.60 147.91,547.40 C157.59,549.88 165.29,555.82 169.51,564.06 C170.79,566.57 172.48,569.16 173.26,569.80 C174.25,570.62 181.35,571.02 196.39,571.11 C215.37,571.21 218.32,571.02 219.94,569.56 C220.95,568.64 224.59,563.24 228.01,557.56 C231.44,551.88 235.34,545.94 236.67,544.37 C239.83,540.65 238.54,543.33 232.25,553.59 C229.58,557.94 226.79,563.41 226.04,565.74 C224.64,570.11 222.02,573.23 219.40,573.62 C216.04,574.11 214.90,576.23 215.20,581.41 L 215.50 586.50 L 221.75 586.80 C225.19,586.96 228.00,587.55 228.00,588.11 C228.00,590.22 230.14,587.59 237.07,576.97 C241.00,570.94 244.45,566.00 244.72,566.00 C245.00,566.00 244.50,567.11 243.61,568.47 C242.73,569.82 240.80,573.09 239.34,575.72 C235.20,583.16 232.41,587.42 230.75,588.79 C229.61,589.74 222.61,590.05 202.64,590.04 C186.09,590.02 175.19,590.41 173.74,591.07 C172.47,591.65 170.35,594.15 169.04,596.63 C161.82,610.24 143.38,616.69 128.30,610.90 ZM 145.93 592.54 C151.06,589.88 154.00,585.38 154.00,580.17 C153.99,568.92 142.68,562.24 133.30,567.96 C126.50,572.10 124.55,578.95 128.19,585.93 C131.90,593.03 139.50,595.86 145.93,592.54 ZM 187.73 406.04 C198.02,401.36 198.85,386.59 189.09,381.55 C176.61,375.09 163.01,388.30 170.13,399.98 C172.67,404.16 174.51,405.67 178.50,406.90 C182.74,408.20 183.02,408.17 187.73,406.04 ZM 238.39 860.96 C231.43,857.52 226.30,852.35 222.82,845.29 C219.93,839.41 219.56,837.73 219.59,830.47 C219.63,820.68 222.46,813.83 229.20,807.15 C235.32,801.10 241.09,798.60 249.50,798.36 L 256.50 798.16 L 250.00 798.96 C242.19,799.93 237.36,801.61 236.59,803.63 C236.27,804.45 235.60,804.87 235.09,804.56 C234.58,804.24 232.39,805.80 230.21,808.02 C227.36,810.93 225.91,813.53 225.02,817.28 C223.11,825.38 222.69,834.01 223.99,838.36 C224.64,840.54 225.32,843.06 225.49,843.97 C226.32,848.27 229.11,852.98 232.24,855.37 C234.14,856.82 236.06,858.00 236.52,858.00 C236.97,858.00 238.05,858.64 238.92,859.41 C239.79,860.19 242.07,861.28 244.00,861.82 C246.93,862.66 247.09,862.83 245.00,862.91 C243.62,862.96 240.65,862.08 238.39,860.96 ZM 241.15 840.52 C239.43,838.56 237.75,835.85 237.41,834.48 C237.06,833.12 236.38,832.00 235.89,832.00 C235.40,832.00 235.00,831.33 235.00,830.50 C235.00,829.67 235.45,829.00 236.00,829.00 C236.55,829.00 237.00,828.17 237.00,827.15 C237.00,826.14 237.97,824.45 239.15,823.40 C241.27,821.52 241.28,821.52 240.16,823.65 C239.54,824.83 238.86,827.91 238.65,830.48 C238.32,834.37 238.69,835.68 240.86,838.33 C242.30,840.07 243.91,841.81 244.45,842.20 C245.00,842.58 245.18,843.16 244.85,843.48 C244.53,843.80 242.86,842.47 241.15,840.52 ZM 46.25 563.44 C48.02,565.35 48.86,562.95 48.86,556.00 C48.86,546.68 47.17,545.40 46.89,554.50 L 46.65 562.50 L 45.35 548.50 L 45.18 555.29 C45.07,559.57 45.46,562.59 46.25,563.44 ZM 244.62 989.01 C242.48,987.39 239.11,985.54 237.12,984.90 C233.70,983.80 229.32,980.35 230.21,979.46 C230.87,978.80 245.31,987.56 247.40,989.88 C249.97,992.74 249.25,992.51 244.62,989.01 ZM 81.00 417.00 C81.00,421.49 81.37,423.89 82.00,423.50 C82.55,423.16 83.00,420.24 83.00,417.00 C83.00,413.76 82.55,410.84 82.00,410.50 C81.37,410.11 81.00,412.51 81.00,417.00 ZM 41.78 728.11 C43.51,737.91 46.58,747.20 51.01,756.00 C51.29,756.57 51.58,757.12 51.86,757.66 C46.97,748.45 43.61,738.59 41.78,728.11 ZM 48.91 374.24 C50.41,367.00 52.39,359.88 54.97,351.99 C54.99,351.94 55.01,351.89 55.02,351.84 C52.49,359.57 50.35,367.51 48.91,374.24 ZM 70.93 658.36 C65.51,653.70 61.63,650.44 59.00,648.34 C61.62,650.39 65.13,653.31 68.87,656.57 C69.57,657.18 70.26,657.78 70.93,658.36 ZM 54.60 645.31 C54.57,645.30 54.55,645.31 54.53,645.31 C54.53,645.31 54.54,645.31 54.54,645.31 C54.56,645.30 54.58,645.30 54.60,645.31 Z" fill="rgba(231,231,231,1)"/>
<path d="M 71.55 873.36 C71.19,871.90 71.36,870.24 71.94,869.66 C72.69,868.91 73.00,869.70 73.00,872.30 C73.00,876.66 72.48,877.04 71.55,873.36 ZM 65.96 833.85 C64.65,831.24 57.85,823.68 49.02,815.00 C31.60,797.87 23.93,787.78 15.95,771.50 C9.30,757.94 5.59,746.11 3.39,731.50 C2.56,726.00 1.46,721.07 0.94,720.55 C-0.32,719.28 -0.27,697.67 1.00,696.40 C1.56,695.84 2.47,691.59 3.04,686.95 C4.52,674.74 9.16,656.44 14.54,641.50 C17.12,634.35 19.44,626.88 19.70,624.91 C19.99,622.74 18.97,616.52 17.13,609.20 C12.43,590.50 10.70,576.00 10.75,555.50 C10.82,521.17 15.84,500.65 31.55,470.42 C42.59,449.16 44.03,443.93 44.67,423.00 C44.94,413.93 45.41,406.28 45.70,406.00 C46.00,405.73 45.99,414.73 45.68,426.00 C45.04,449.74 43.51,457.16 37.01,468.11 C34.81,471.80 32.56,476.02 32.00,477.50 C30.52,481.40 30.62,788.42 32.10,791.19 C32.70,792.32 36.13,796.60 39.72,800.72 C43.79,805.38 45.36,807.74 43.88,806.98 C41.96,805.98 42.16,806.44 44.93,809.36 C46.82,811.35 48.53,812.81 48.73,812.61 C48.93,812.41 52.62,815.92 56.92,820.42 C64.07,827.88 69.88,836.45 68.64,837.69 C68.36,837.97 67.16,836.24 65.96,833.85 ZM 68.37 781.75 C64.02,777.21 58.93,771.36 57.06,768.75 C55.19,766.14 53.26,764.00 52.77,764.00 C52.28,764.00 52.13,763.60 52.43,763.12 C52.73,762.63 52.17,761.17 51.20,759.87 C49.36,757.41 47.31,753.16 47.22,751.61 C47.19,751.12 46.74,750.45 46.22,750.11 C44.69,749.13 40.33,738.97 38.87,733.00 C37.98,729.34 37.53,720.96 37.54,708.00 C37.55,686.51 39.14,675.63 43.60,666.66 C44.92,664.00 45.75,661.41 45.44,660.91 C45.14,660.41 45.39,660.00 46.00,660.00 C46.61,660.00 46.91,659.66 46.65,659.24 C46.39,658.82 46.74,657.13 47.44,655.49 C48.13,653.85 48.80,652.05 48.94,651.50 C49.54,649.04 52.59,644.95 54.21,644.43 C55.48,644.03 59.84,647.23 69.46,655.63 C76.87,662.10 82.76,667.57 82.55,667.78 C82.34,668.00 76.18,662.95 68.87,656.57 C61.56,650.19 55.11,645.12 54.54,645.31 C53.97,645.49 51.61,651.24 49.30,658.07 C32.23,708.57 39.10,750.43 69.62,781.83 C76.10,788.49 77.42,790.00 76.76,790.00 C76.49,790.00 72.72,786.29 68.37,781.75 ZM 61.27 624.75 C59.39,622.35 52.73,602.59 50.57,593.00 C49.00,586.03 47.34,568.13 48.34,569.06 C48.68,569.36 49.63,574.49 50.47,580.44 C52.27,593.25 57.28,613.11 60.60,620.64 C62.96,625.96 63.15,627.15 61.27,624.75 ZM 46.25 563.44 C45.46,562.59 45.07,559.57 45.18,555.29 L 45.35 548.50 L 46.00 555.50 L 46.65 562.50 L 46.89 554.50 C47.17,545.40 48.86,546.68 48.86,556.00 C48.86,562.95 48.02,565.35 46.25,563.44 ZM 48.07 541.69 C48.03,540.70 47.55,540.16 47.00,540.50 C46.45,540.84 46.00,540.45 46.00,539.64 C46.00,538.83 46.42,538.02 46.93,537.83 C47.45,537.65 48.57,533.45 49.43,528.50 C50.29,523.55 51.18,518.56 51.41,517.40 C52.08,514.02 60.56,493.90 63.38,489.00 C67.28,482.24 66.52,485.52 62.11,494.55 C56.32,506.41 50.16,527.72 49.93,536.71 C49.89,538.24 49.47,540.40 49.00,541.50 C48.23,543.29 48.13,543.31 48.07,541.69 ZM 81.11 437.00 C81.15,432.85 81.23,432.71 82.15,435.21 C82.82,437.04 82.80,438.51 82.10,439.71 C81.27,441.14 81.07,440.58 81.11,437.00 ZM 81.00 417.00 C81.00,412.51 81.37,410.11 82.00,410.50 C82.55,410.84 83.00,413.76 83.00,417.00 C83.00,420.24 82.55,423.16 82.00,423.50 C81.37,423.89 81.00,421.49 81.00,417.00 ZM 45.02 398.25 C45.02,397.29 45.47,395.83 46.00,395.00 C46.74,393.86 46.97,394.28 46.98,396.75 C46.99,398.54 46.55,400.00 46.00,400.00 C45.45,400.00 45.01,399.21 45.02,398.25 ZM 47.01 390.00 C46.23,384.76 49.78,367.83 55.03,351.81 C59.30,338.77 69.28,318.35 74.00,313.00 L 77.09 309.50 L 74.59 313.50 C62.46,332.90 54.98,351.86 50.93,373.50 C48.89,384.42 47.23,391.42 47.01,390.00 Z" fill="rgba(247,247,247,1)"/>
</g>
</svg>