<?xml version="1.0" encoding="utf-8"?>
<!-- Generator: Adobe Illustrator 24.3.0, SVG Export Plug-In . SVG Version: 6.00 Build 0)  -->
<svg version="1.0" id="katman_1" xmlns="http://www.w3.org/2000/svg" xmlns:xlink="http://www.w3.org/1999/xlink" x="0px" y="0px"
	 viewBox="0 0 841.89 595.28" style="enable-background:new 0 0 841.89 595.28;" xml:space="preserve">
<style type="text/css">
	.st0{fill:#201515;}
	.st1{fill:#E9521D;}
</style>
<path class="st0" d="M248.57,329.78l-0.09-0.29l57.79-52.91v-25.49h-92.72v25.49h55.38l0.09,0.24l-57.23,52.95v25.49h95.41v-25.49
	H248.57z"/>
<path class="st0" d="M364.12,248.66c-10.69,0-19.41,1.61-26.15,4.84c-6.28,2.81-11.56,7.44-15.17,13.3
	c-3.45,5.89-5.62,12.45-6.37,19.23l28.13,3.95c1.02-5.99,3.05-10.24,6.11-12.75c3.47-2.62,7.75-3.94,12.09-3.74
	c5.71,0,9.85,1.53,12.42,4.58c2.55,3.05,3.85,7.28,3.85,12.85v2.78h-27.05c-13.77,0-23.66,3.05-29.68,9.16
	c-6.01,6.11-9.02,14.17-9.01,24.18c0,10.26,3,17.89,9.01,22.9c6,5.01,13.56,7.49,22.65,7.46c11.29,0,19.97-3.88,26.04-11.65
	c3.59-4.77,6.15-10.23,7.53-16.04h1.02l3.88,25.49h25.49v-64.56c0-13.34-3.51-23.68-10.55-31
	C391.35,252.32,379.93,248.66,364.12,248.66z M373.04,328.23c-4.05,3.37-9.34,5.05-15.94,5.05c-5.43,0-9.21-0.95-11.33-2.85
	c-1.03-0.9-1.85-2.02-2.4-3.27c-0.55-1.25-0.82-2.61-0.79-3.98c-0.06-1.29,0.14-2.58,0.6-3.79c0.45-1.21,1.15-2.31,2.04-3.25
	c0.97-0.91,2.11-1.61,3.35-2.06c1.25-0.45,2.57-0.65,3.9-0.58h26.61v1.76c0.05,2.48-0.46,4.94-1.51,7.19
	C376.52,324.7,374.97,326.68,373.04,328.23z"/>
<path class="st0" d="M563.07,251.08h-30.12v104.2h30.12V251.08z"/>
<path class="st0" d="M740.9,251.08c-8.51,0-15.21,3-20.12,9.01c-3.52,4.31-6.2,10.69-8.03,19.13h-0.89l-3.94-28.13H682.2v104.18
	h30.12v-53.43c0-6.74,1.58-11.9,4.73-15.49c3.15-3.59,8.98-5.39,17.46-5.39h11.43v-29.87H740.9z"/>
<path class="st0" d="M652.31,254.49c-7.03-4.18-15.9-6.27-26.6-6.26c-16.85,0-30.04,4.8-39.57,14.4
	c-9.53,9.6-14.29,22.83-14.29,39.69c-0.24,10.19,1.98,20.3,6.49,29.45c4.12,8.15,10.54,14.92,18.47,19.46
	c7.98,4.61,17.47,6.92,28.47,6.93c9.51,0,17.46-1.47,23.84-4.4c6-2.63,11.22-6.76,15.17-11.98c3.76-5.13,6.55-10.9,8.24-17.04
	l-25.95-7.27c-1.09,3.99-3.2,7.63-6.11,10.56c-2.93,2.93-7.84,4.4-14.73,4.4c-8.19,0-14.3-2.35-18.32-7.04
	c-2.92-3.39-4.75-8.23-5.56-14.5h71.06c0.29-2.93,0.44-5.39,0.44-7.37v-6.49c0.17-8.72-1.63-17.36-5.27-25.28
	C664.71,264.54,659.2,258.52,652.31,254.49z M624.84,273.07c12.21,0,19.14,6.01,20.77,18.03h-43.2c0.69-4.01,2.35-7.79,4.84-11.01
	C611.21,275.4,617.07,273.06,624.84,273.07z"/>
<path class="st0" d="M548.34,209.09c-2.27-0.08-4.52,0.3-6.64,1.12s-4.05,2.04-5.68,3.62c-1.61,1.59-2.87,3.5-3.7,5.6
	c-0.83,2.1-1.22,4.35-1.14,6.61c-0.08,2.27,0.31,4.54,1.14,6.66c0.83,2.12,2.09,4.04,3.7,5.65c1.61,1.61,3.53,2.87,5.65,3.7
	s4.38,1.22,6.66,1.14c2.26,0.09,4.51-0.3,6.62-1.13c2.1-0.83,4.01-2.09,5.6-3.71c1.58-1.63,2.8-3.56,3.62-5.67
	c0.81-2.11,1.18-4.37,1.1-6.63c0.1-2.25-0.26-4.5-1.08-6.6c-0.81-2.1-2.05-4.01-3.65-5.6c-1.59-1.59-3.5-2.84-5.6-3.65
	c-2.1-0.81-4.34-1.18-6.59-1.08L548.34,209.09z"/>
<path class="st0" d="M486.12,248.23c-10.26,0-18.5,3.22-24.73,9.66c-4.61,4.77-8,11.9-10.15,21.37h-0.96l-3.94-28.13h-25.72v134.09
	h30.12v-55.23h1.1c0.92,3.68,2.21,7.26,3.85,10.69c2.55,5.58,6.73,10.25,11.99,13.4c5.45,2.97,11.59,4.45,17.8,4.29
	c12.61,0,22.21-4.91,28.8-14.73c6.59-9.82,9.89-23.52,9.89-41.11c0-16.99-3.19-30.28-9.57-39.89
	C508.21,253.03,498.72,248.23,486.12,248.23z M489.18,323.73c-3.51,5.09-9.01,7.63-16.49,7.63c-3.08,0.14-6.16-0.45-8.96-1.73
	c-2.81-1.28-5.27-3.22-7.18-5.64c-3.9-4.89-5.84-11.6-5.83-20.1v-1.98c0-8.64,1.94-15.25,5.83-19.84c3.89-4.59,9.27-6.86,16.15-6.81
	c7.61,0,13.14,2.42,16.59,7.25s5.17,11.58,5.17,20.23c0.02,8.95-1.73,15.95-5.25,21H489.18z"/>
<path class="st1" d="M200.15,329.78H95.95v25.52h104.2V329.78z"/>
</svg>
