<?xml version="1.0" encoding="UTF-8"?>
<svg id="Capa_1" data-name="Capa 1" xmlns="http://www.w3.org/2000/svg" xmlns:xlink="http://www.w3.org/1999/xlink" viewBox="0 0 1048.52 1020.78">
  <defs>
    <style>
      .cls-1 {
        stroke: url(#Degradado_sin_nombre_21);
      }

      .cls-1, .cls-2 {
        fill: #f2f2f2;
        stroke-miterlimit: 10;
        stroke-width: 2px;
      }

      .cls-3 {
        fill: url(#Degradado_sin_nombre_13);
      }

      .cls-2 {
        stroke: url(#Degradado_sin_nombre_36);
      }
    </style>
    <linearGradient id="Degradado_sin_nombre_21" data-name="Degradado sin nombre 21" x1="73.26" y1="510.39" x2="515.96" y2="510.39" gradientUnits="userSpaceOnUse">
      <stop offset="0" stop-color="#41c5f6"/>
      <stop offset="1" stop-color="#5f8df1"/>
    </linearGradient>
    <linearGradient id="Degradado_sin_nombre_36" data-name="Degradado sin nombre 36" x1="557.08" y1="510.39" x2="997.26" y2="510.39" gradientUnits="userSpaceOnUse">
      <stop offset="0" stop-color="#6978f0"/>
      <stop offset="1" stop-color="#8740eb"/>
    </linearGradient>
    <linearGradient id="Degradado_sin_nombre_13" data-name="Degradado sin nombre 13" x1="74.26" y1="510.39" x2="996.26" y2="510.39" gradientUnits="userSpaceOnUse">
      <stop offset="0" stop-color="#3fcaf6"/>
      <stop offset="1" stop-color="#893beb"/>
    </linearGradient>
  </defs>
  <g>
    <path class="cls-1" d="M488.4,15.08c-8.01-5.72-17.31-8.33-26.73-10.51-5.75-1.33-11.57-2.29-17.47-2.68-.95-.06-2.07.23-2.69-.89h-13.83c-.5.93-1.43.86-2.26.92-26.52,1.89-48.44,13.49-67.11,31.89-13.26,13.07-23.8,28.14-31.62,44.99-8.76,18.87-22.9,31.21-42.55,37.82-26.29,8.84-46.75,25.02-60.16,49.57-9.17,16.79-14.05,34.87-15.83,53.86-.65,6.89-1.08,13.8-.67,20.7.22,3.71-1.05,5.61-4.49,7.13-19.1,8.45-35.62,20.47-49.26,36.36-15.29,17.82-25.1,38.45-31.01,61.03-4.88,18.63-7.16,37.58-6.34,56.84.62,14.68-2.92,28.17-10.55,40.72-12.89,21.2-19.3,44.42-21.32,69.03-2.07,25.28.9,49.98,7.92,74.26,1.14,3.93.97,7.53-.61,11.32-6.9,16.52-11.89,33.61-14.56,51.34-.47,3.13-.71,6.29-1.13,9.42-.16,1.24-.13,2.7-1.87,2.99v21.6c2.29,1.3,2.08,3.72,2.3,5.75,3.85,36.13,20.98,64.95,48.42,88.09,7.71,6.5,13.22,14.35,15.34,24.37.9,4.26.92,8.57.88,12.89-.17,20.64,3.98,40.3,13.48,58.72,9.41,18.23,22.77,33.15,38.65,45.91,21.59,17.35,46.08,29.3,72.21,37.96,11.9,3.94,22.14,10.16,30.94,18.99,12.59,12.63,26.7,23.22,42.7,31.2,13.4,6.68,27.55,10.8,42.45,12.35.98.1,2.04-.03,2.84.78h14.69c3.78-1.52,7.86-1.43,11.79-2.13,20.83-3.73,39.28-12.77,56.39-24.88,10.16-7.19,19.48-15.27,27.22-25.08,13.71-17.38,20.32-37.17,20.32-59.25,0-215.66,0-431.32,0-646.98,0-65.22.17-130.43,0-195.65-.05-21.29-9.1-38.31-26.48-50.74ZM478.81,886.17c0,7.63.09,15.26-.02,22.89-.22,16.14-5.74,30.01-17.39,41.44-12.07,11.84-25.49,21.49-41.46,27.41-22.79,8.46-44.85,6.98-66.32-4.38-11.95-6.32-22.52-14.48-31.98-24.06-12.71-12.87-27.68-21.87-44.87-27.41-18.87-6.08-36.73-14.3-53.02-25.72-11.04-7.74-20.93-16.68-28.94-27.6-11.71-15.97-17.54-33.87-17.55-53.64,0-9.39-.44-18.71-3.26-27.76-4.74-15.26-13.14-28.05-25.5-38.24-13.82-11.39-24.42-25.16-30.7-42.07-5.78-15.59-6.93-31.71-5.28-48.08,1.61-16.01,6.13-31.31,12.06-46.21.21-.52.56-.99.85-1.49,1.65.2,2.49,1.48,3.53,2.38,11.1,9.62,22.26,19.18,33.18,29,3.14,2.83,6.36,3.87,10.51,3.83,20.02-.18,40.04-.04,60.05-.22,3.55-.03,5.23,1.04,6.64,4.43,5.96,14.29,20.85,21.6,36.13,18.17,14.64-3.29,24.71-16.61,24.25-32.07-.44-14.65-11.79-27.45-26.5-29.88-13.59-2.25-27.09,4.62-33.25,17.27-1.47,3.03-3.16,4.19-6.55,4.16-18.43-.16-36.87-.12-55.3-.03-3.05.01-5.5-.75-7.83-2.82-11.43-10.12-22.96-20.13-34.51-30.11-2.01-1.74-3.3-3.7-4.26-6.24-4.95-13.13-8.46-26.58-10.14-40.52-3.91-32.53.44-63.4,17.98-91.78,10.41-16.85,13.79-35.49,13.03-55.05-.76-19.32,1.68-38.19,7.95-56.53,11.51-33.68,34.14-56.4,67.5-68.55,3.65-1.33,7.39-2.4,11.05-3.71,2.21-.79,4.43-1.12,6.77-1.12,25.92.02,51.85.08,77.77-.06,3.78-.02,5.58,1.42,7.05,4.78,8.81,20.18,17.76,40.3,26.86,60.34,1.59,3.49,1.36,5.75-1.26,8.76-15.98,18.34-6.66,46.45,17.1,51.43,20.32,4.26,34.92-10.2,37.66-25.11,3.13-17-8.3-33.75-25.43-36.71-2.28-.39-4.55-.73-6.87-.61-1.66.08-2.73-.69-3.37-2.16-.41-.92-.81-1.84-1.22-2.76-10.58-23.8-21.22-47.58-31.65-71.45-1.5-3.45-3.38-4.66-7.1-4.64-28.51.14-57.03.08-85.55.07-6.11,0-5.22.18-5.65-5.01-1.51-18.11-.26-35.94,6.24-53.15,8.48-22.42,23.91-37.68,46.69-45.21,16.75-5.53,31.33-14.37,43.44-27.23,7.17-7.61,12.83-16.24,17.36-25.65,5.96-12.37,13.04-24.04,22.3-34.27,10.49-11.58,22.87-20.1,38.26-23.82,16.12-3.9,31.78-2.06,46.96,4.08,8.44,3.41,12.28,10.47,13.37,19.2.23,1.85.19,3.74.19,5.61,0,43.93,0,87.85,0,131.78,0,.86-.07,1.73,0,2.59.17,1.95-.82,2.45-2.59,2.42-4.46-.07-8.93-.09-13.39,0-2.19.05-3.39-.93-4.31-2.84-6.83-14.28-13.69-28.55-20.66-42.76-1.13-2.31-.78-3.88.79-5.81,6.53-8.04,8.29-17.3,5.97-27.24-3.47-14.84-17.92-25.04-33.29-23.77-15.43,1.28-27.59,13.43-28.89,28.89-1.29,15.24,8.68,29.21,23.49,33.02,3.11.8,6.29,1.19,9.42.79,4.03-.52,5.95,1.3,7.57,4.74,7.55,16.01,15.31,31.92,22.99,47.87.19.39.44.76.56,1.17,1,3.21,2.98,4.33,6.47,4.18,7.62-.32,15.26-.04,22.89-.14,2.25-.03,3.18.73,2.98,2.97-.09,1-.01,2.01-.01,3.02,0,73.45,0,146.9-.01,220.35,0,6.9.75,5.83-6.06,5.84-23.33.05-46.66.07-69.99-.04-3.48-.02-5.85,1.01-8.05,3.81-10.16,12.89-20.59,25.57-30.8,38.42-1.88,2.36-3.88,3.41-6.93,3.39-11.52-.04-23.04.04-34.55.34-3.28.09-4.89-1.15-6.23-4.01-15.14-32.32-30.36-64.6-45.68-96.84-1.4-2.95-1.37-4.89.81-7.63,7.91-9.91,9.01-21.13,3.9-32.5-5.17-11.5-14.73-17.27-27.26-18.2-16.69-1.24-30.43,11.62-32.69,26.56-2.47,16.33,7.63,31.4,23.51,35.39,3.24.81,6.57,1.23,9.85.8,3-.39,4.39.78,5.59,3.38,6.89,14.89,13.93,29.71,20.93,44.55,8.29,17.57,16.5,35.18,24.94,52.68,1.51,3.13,1.38,5.45-.52,8.32-5.15,7.81-10.11,15.76-14.88,23.8-1.83,3.08-3.94,4.42-7.6,4.35-11.52-.21-23.04-.21-34.56,0-3.59.07-5.35-1.14-6.76-4.46-8.41-19.71-33.38-25.43-49.44-11.48-9.72,8.44-13.39,21.58-9.43,33.73,4,12.27,15.07,20.94,27.89,21.84,12.6.89,24.7-5.91,30.24-17.56,1.6-3.36,3.57-4.17,6.95-4.13,15.12.16,30.24.02,45.36.2,3.44.04,5.54-1.04,7.34-4.02,6.47-10.72,13.32-21.21,19.74-31.97,2.08-3.49,4.4-4.91,8.57-4.87,14.39.13,28.79-.26,43.19-.3,2.89,0,4.8-1.03,6.57-3.25,10.13-12.73,20.45-25.32,30.52-38.09,2.26-2.86,4.64-4.15,8.36-4.12,20.88.18,41.76.12,62.65.14.72,0,1.45.08,2.16,0,1.98-.2,2.52.84,2.39,2.58-.05.72,0,1.44,0,2.16,0,38.6-.02,77.19.04,115.79,0,2.72-.65,4.93-2.27,7.15-29.1,40.08-58.16,80.19-87.14,120.36-1.9,2.63-3.91,3.68-7.15,3.63-10.94-.16-21.89.06-32.83-.06-2.93-.03-4.8.98-6.47,3.34-5.98,8.46-12.17,16.78-18.19,25.23-1.64,2.3-3.12,3.36-6.36,2.78-16.55-2.98-32.45,7.79-36.13,24.07-3.67,16.2,5.88,32.18,21.81,37.25,11.72,3.73,25.91-.91,33.5-10.27,8.14-10.04,9.43-23.88,3.15-35.23-.56-1.01-1.14-2.02-1.84-2.92-1.14-1.46-1.13-2.75,0-4.27,4.8-6.48,9.55-12.99,14.23-19.56,1.36-1.9,3.12-2.24,5.25-2.24,11.09,0,22.18-.22,33.26-.03,3.5.06,5.5-1.28,7.44-3.98,25.18-34.92,50.46-69.77,75.73-104.63,1-1.38,1.81-2.92,3.53-4.26.71,2.1.41,3.83.41,5.53.02,83.39.02,166.77.02,250.16ZM254.74,638.12c.03-7.38,6.09-13.33,13.52-13.29,7.33.04,13.35,6.23,13.23,13.6-.12,7.23-6.06,13.07-13.3,13.1-7.33.03-13.48-6.1-13.45-13.4ZM366.34,366.2c.08-7.14,6.07-13.19,13.22-13.33,7.18-.14,13.57,6.13,13.62,13.36.05,7.37-5.99,13.38-13.44,13.38-7.47,0-13.48-6.02-13.4-13.42ZM427.4,134.24c-.08,7.03-6.25,13.27-13.24,13.38-7.22.12-13.52-6.09-13.57-13.4-.06-7.39,6.03-13.53,13.37-13.49,7.36.04,13.53,6.23,13.44,13.5ZM259.89,373.38c.1,7.32-6,13.55-13.3,13.6-7.26.05-13.45-6.15-13.44-13.46,0-7.42,5.94-13.21,13.53-13.19,7.37.02,13.11,5.7,13.21,13.05ZM220.35,550.22c-.15,7.12-6.24,13.12-13.36,13.16-7.3.05-13.5-6.14-13.48-13.46.02-7.38,6.12-13.36,13.56-13.29,7.37.07,13.42,6.27,13.27,13.59ZM326.56,787.58c.03,7.25-6.25,13.48-13.52,13.43-7.3-.06-13.39-6.28-13.31-13.62.08-7.15,6.08-13.08,13.29-13.14,7.4-.06,13.52,5.96,13.54,13.33Z"/>
    <path class="cls-2" d="M995.57,652.77c-.07-13.6-4.24-26.35-8.25-39.11-1.72-5.48-3.82-10.86-6.03-16.17-1.58-3.79-1.75-7.4-.59-11.33,6.01-20.29,8.93-41.02,8.56-62.19-.52-29.8-7.48-57.82-23.23-83.38-7.19-11.67-9.6-24.43-9.24-38,.81-30.51-4.26-59.91-17.51-87.64-13.99-29.29-35.75-50.86-64.88-65.06-1.16-.57-2.31-1.2-3.52-1.65-3.88-1.44-5.58-4.07-5.31-8.3.43-6.91.03-13.82-.66-20.7-2.1-20.91-7.87-40.65-19.07-58.58-13.78-22.07-33.63-36.45-58.06-44.55-18.54-6.14-31.93-17.71-40.35-35.31-8.51-17.79-19.31-34.04-33.51-47.87-16.88-16.43-36.69-27.09-60.17-30.57-2.78-.41-5.78.46-8.33-1.36h-13.83c-1.52,1.48-3.51,1.01-5.29,1.19-10.66,1.04-21.07,3.12-30.95,7.35-24.12,10.33-35.72,29.22-37.22,54.91-.11,1.87-.06,3.74-.06,5.61,0,237.85,0,475.7,0,713.55,0,41.61,0,83.22.09,124.83.06,27.81,10.24,51.36,30.58,70.34,17.82,16.63,38.03,29.29,61.63,36.12,6.79,1.96,13.73,3.15,20.73,4.03,1.25.16,2.62-.12,3.7.86h14.69c3.64-1.49,7.57-1.39,11.35-2.07,20.24-3.64,38.25-12.29,54.78-24.29,7.24-5.25,14.13-10.93,20.37-17.35,8.91-9.17,19.45-15.59,31.59-19.6,26.32-8.68,50.83-20.85,72.55-38.27,20.17-16.18,35.79-35.73,44.66-60.29,5.25-14.53,7.5-29.51,7.13-44.92-.36-15.11,5.44-27.42,16.98-37.1,10.99-9.22,20.59-19.69,28.33-31.81,8.78-13.75,14.55-28.7,17.84-44.64.55-2.66-.21-5.49,1.18-8.02v-37.16c-.5-.37-.69-.9-.69-1.49ZM925.51,748.33c-13.62,11.31-22.83,25.34-27.34,42.47-2.11,8.02-2.3,16.21-2.3,24.43.01,19.63-5.88,37.38-17.37,53.27-7.5,10.37-16.78,18.94-27.1,26.43-17.31,12.55-36.55,21.24-56.77,27.8-16.23,5.26-30.26,13.88-42.27,25.93-8.37,8.39-17.46,15.88-27.67,21.97-26.64,15.89-53.77,16.92-81.46,2.85-11.52-5.85-21.88-13.3-31.08-22.36-11.53-11.35-17.42-25.16-17.83-41.33-.03-1.15-.02-2.3-.02-3.46,0-89.28,0-178.57.01-267.85,0-1.55-.29-3.14.39-4.99,1.35.81,1.98,2.09,2.77,3.19,24.68,34.04,49.37,68.06,73.96,102.16,2.2,3.05,4.43,4.66,8.46,4.55,10.65-.28,21.31.07,31.96-.04,3.06-.03,5.08.9,6.82,3.46,3.81,5.59,7.9,10.99,11.89,16.45,2.96,4.05,2.85,3.84.36,7.89-9.2,14.95-4.52,34.24,10.41,43.43,10.75,6.61,24.79,6.06,34.98-1.37,10.35-7.56,15.17-20.49,12.24-32.84-2.96-12.46-13.07-21.97-25.58-23.93-3.57-.56-7.23-.69-10.74.19-2.74.69-4.29-.29-5.8-2.4-5.93-8.32-12.1-16.48-17.9-24.9-2.14-3.09-4.55-4.21-8.26-4.14-10.65.2-21.31-.05-31.97.06-2.87.03-4.79-.79-6.51-3.18-28.56-39.58-57.2-79.1-85.85-118.62-1.16-1.6-1.7-3.2-1.69-5.17.04-40.32.02-80.64.04-120.97,0-3.67.05-3.71,3.86-3.72,20.59-.04,41.19,0,61.78-.14,3.22-.02,5.34,1.09,7.3,3.57,10.02,12.64,20.25,25.11,30.24,37.76,2.24,2.83,4.54,4.19,8.3,4.17,14.25-.09,28.5.32,42.76.28,3.6,0,5.76,1.16,7.62,4.25,6.53,10.85,13.42,21.49,19.96,32.34,1.87,3.1,4.07,4.29,7.67,4.24,15.12-.19,30.24-.04,45.36-.2,3.24-.03,5.11.75,6.64,3.95,6.52,13.67,21.51,20.47,36.12,16.77,14.04-3.56,24.14-16.88,23.71-31.28-.46-15.31-11.25-27.86-26.25-30.52-14.19-2.52-28.38,5-34.11,18.5-1.47,3.46-3.22,4.73-6.97,4.66-11.66-.23-23.33-.18-34.99-.03-3.11.04-5.02-.99-6.63-3.67-4.96-8.27-10.08-16.45-15.33-24.54-1.78-2.73-1.98-5.11-.59-8.05,15.35-32.38,30.61-64.8,45.9-97.2,1.74-3.69,1.92-3.75,5.9-3.45,17.17,1.31,32.23-12.06,33.41-29.65,1.15-17.13-12.27-32.42-29.33-33.24-13.52-.65-23.96,4.86-30.15,16.89-6.16,11.97-4.86,23.73,3.52,34.37,1.84,2.33,1.83,4.09.64,6.59-15.34,32.38-30.64,64.78-45.83,97.23-1.44,3.07-3.24,4.17-6.62,4.07-11.08-.31-22.17-.42-33.25-.32-3.65.03-6.14-1.09-8.43-4-9.97-12.67-20.23-25.12-30.23-37.77-2.17-2.74-4.48-3.9-8.01-3.88-23.04.14-46.08.08-69.12.07-5.18,0-4.86.55-4.86-4.92,0-74.02,0-148.04,0-222.06,0-5.77-.37-5.16,5.05-5.16,6.19,0,12.39-.11,18.57.17,3.41.15,5.2-1.16,6.62-4.18,7.68-16.26,15.55-32.44,23.35-48.65.44-.91.88-1.81,1.28-2.74.85-1.93,2.09-2.86,4.4-2.45,3.58.63,7.18.05,10.73-.58,21.17-3.75,33.4-33.35,16.41-51.5-8.6-9.19-18.77-13.09-31.16-9.8-12.69,3.37-20.79,11.46-23.49,24.38-1.92,9.2.04,17.81,5.85,25.25,1.95,2.49,2.23,4.4.8,7.27-6.74,13.52-13.31,27.13-19.75,40.8-1.35,2.87-3,4.18-6.22,3.93-3.44-.26-6.91-.1-10.36-.06-1.44.01-2.13-.56-2.07-2.04.04-1.01,0-2.02,0-3.02,0-44.21,0-88.42-.02-132.63,0-3.33.2-6.62,1.19-9.82,1.93-6.22,5.5-11.24,11.63-13.7,24.06-9.67,47.47-9.18,69.74,5.23,9.56,6.18,17.16,14.42,23.87,23.53,5.74,7.79,10.46,16.19,14.69,24.88,12.4,25.49,31.93,43.15,58.82,52.05,28.99,9.59,45.77,29.64,52.49,58.84,3.16,13.73,3.8,27.63,2.23,41.63-.41,3.68-.53,3.72-4.19,3.73-29.38.02-58.75.03-88.13-.01-5.8,0-5.8-.1-8.08,5.03-10.45,23.54-20.89,47.09-31.34,70.63-.35.79-.75,1.56-1.04,2.37-.77,2.17-2.11,2.99-4.56,2.97-7.57-.05-14.45,2.18-20.38,7.05-13.12,10.78-15.41,30.56-5.08,43.86,10.54,13.57,30.25,16.25,44.12,6.19,10.68-7.74,18.67-28.16,6.48-43.96-.97-1.25-1.94-2.53-3.08-3.61-1.74-1.64-1.83-3.27-.87-5.41,9.54-21.27,19.02-42.57,28.46-63.88.94-2.13,2.29-3.15,4.61-3.08,2.59.08,5.18,0,7.78,0,24.34,0,48.67.02,73.01-.03,2.92,0,5.69.45,8.47,1.34,11.53,3.73,22.76,8.1,33.1,14.57,23.32,14.59,37.95,35.63,45.87,61.64,5.34,17.51,7.42,35.45,6.7,53.73-.8,20.08,3.61,38.83,14.23,56.04,11.62,18.83,17.1,39.52,17.85,61.49.77,22.38-2.41,44.2-10.14,65.3-1.02,2.79-2.49,5.03-4.77,6.98-12.22,10.52-24.41,21.09-36.46,31.81-2.89,2.57-5.88,3.59-9.73,3.56-17.71-.15-35.42-.16-53.13,0-3.86.04-6.14-.85-8.01-4.68-6.25-12.83-20.65-19.45-34.36-16.4-14.11,3.15-24.17,14.95-24.96,28.87-.99,17.29,11.07,28.77,21.83,32.22,12.22,3.91,31.22-.17,38.36-17.45,1.45-3.52,3.33-4.67,7.03-4.64,20.3.16,40.61,0,60.92.15,3.58.03,6.25-1.04,8.89-3.39,11.63-10.32,23.41-20.48,35.16-30.67,1.04-.91,1.88-2.17,3.46-2.46.29.37.64.66.79,1.02,7.86,19.04,13.31,38.71,13.58,59.41.4,31.57-11.48,57.76-35.86,78ZM744.43,787.53c.07-7.43,6.14-13.36,13.57-13.27,7.32.09,13.54,6.46,13.3,13.63-.24,7.13-6.36,13.1-13.44,13.13-7.3.03-13.51-6.2-13.44-13.48ZM850.52,549.7c.13-7.06,6.28-13.04,13.43-13.08,7.45-.03,13.49,5.97,13.45,13.38-.03,7.36-6.23,13.48-13.54,13.38-7.24-.11-13.47-6.49-13.34-13.68ZM811.2,373.73c-.08-7.7,5.52-13.4,13.16-13.4,7.44,0,13.62,6.04,13.57,13.26-.05,7.17-6.46,13.47-13.63,13.38-7.18-.09-13.03-5.99-13.1-13.24ZM643.64,133.93c.05-7.16,6.04-13.15,13.23-13.2,7.37-.05,13.61,6.1,13.55,13.36-.06,7.32-6.39,13.66-13.48,13.52-7.36-.14-13.34-6.3-13.29-13.68ZM704.57,366.42c-.03,7.25-5.88,13.12-13.15,13.2-7.43.08-13.63-5.87-13.73-13.16-.09-7.13,6.27-13.54,13.48-13.58,7.27-.03,13.43,6.19,13.4,13.54ZM816.34,638.24c-.04,7.19-6.41,13.37-13.69,13.28-7.33-.08-13-5.82-13.06-13.22-.05-7.58,5.73-13.48,13.21-13.48,7.31,0,13.57,6.21,13.53,13.41Z"/>
  </g>
  <g>
    <path class="cls-3" d="M488.4,15.08c-8.01-5.72-17.31-8.33-26.73-10.51-5.75-1.33-11.57-2.29-17.47-2.68-.95-.06-2.07.23-2.69-.89h-13.83c-.5.93-1.43.86-2.26.92-26.52,1.89-48.44,13.49-67.11,31.89-13.26,13.07-23.8,28.14-31.62,44.99-8.76,18.87-22.9,31.21-42.55,37.82-26.29,8.84-46.75,25.02-60.16,49.57-9.17,16.79-14.05,34.87-15.83,53.86-.65,6.89-1.08,13.8-.67,20.7.22,3.71-1.05,5.61-4.49,7.13-19.1,8.45-35.62,20.47-49.26,36.36-15.29,17.82-25.1,38.45-31.01,61.03-4.88,18.63-7.16,37.58-6.34,56.84.62,14.68-2.92,28.17-10.55,40.72-12.89,21.2-19.3,44.42-21.32,69.03-2.07,25.28.9,49.98,7.92,74.26,1.14,3.93.97,7.53-.61,11.32-6.9,16.52-11.89,33.61-14.56,51.34-.47,3.13-.71,6.29-1.13,9.42-.16,1.24-.13,2.7-1.87,2.99v21.6c2.29,1.3,2.08,3.72,2.3,5.75,3.85,36.13,20.98,64.95,48.42,88.09,7.71,6.5,13.22,14.35,15.34,24.37.9,4.26.92,8.57.88,12.89-.17,20.64,3.98,40.3,13.48,58.72,9.41,18.23,22.77,33.15,38.65,45.91,21.59,17.35,46.08,29.3,72.21,37.96,11.9,3.94,22.14,10.16,30.94,18.99,12.59,12.63,26.7,23.22,42.7,31.2,13.4,6.68,27.55,10.8,42.45,12.35.98.1,2.04-.03,2.84.78h14.69c3.78-1.52,7.86-1.43,11.79-2.13,20.83-3.73,39.28-12.77,56.39-24.88,10.16-7.19,19.48-15.27,27.22-25.08,13.71-17.38,20.32-37.17,20.32-59.25,0-215.66,0-431.32,0-646.98,0-65.22.17-130.43,0-195.65-.05-21.29-9.1-38.31-26.48-50.74ZM478.81,886.17c0,7.63.09,15.26-.02,22.89-.22,16.14-5.74,30.01-17.39,41.44-12.07,11.84-25.49,21.49-41.46,27.41-22.79,8.46-44.85,6.98-66.32-4.38-11.95-6.32-22.52-14.48-31.98-24.06-12.71-12.87-27.68-21.87-44.87-27.41-18.87-6.08-36.73-14.3-53.02-25.72-11.04-7.74-20.93-16.68-28.94-27.6-11.71-15.97-17.54-33.87-17.55-53.64,0-9.39-.44-18.71-3.26-27.76-4.74-15.26-13.14-28.05-25.5-38.24-13.82-11.39-24.42-25.16-30.7-42.07-5.78-15.59-6.93-31.71-5.28-48.08,1.61-16.01,6.13-31.31,12.06-46.21.21-.52.56-.99.85-1.49,1.65.2,2.49,1.48,3.53,2.38,11.1,9.62,22.26,19.18,33.18,29,3.14,2.83,6.36,3.87,10.51,3.83,20.02-.18,40.04-.04,60.05-.22,3.55-.03,5.23,1.04,6.64,4.43,5.96,14.29,20.85,21.6,36.13,18.17,14.64-3.29,24.71-16.61,24.25-32.07-.44-14.65-11.79-27.45-26.5-29.88-13.59-2.25-27.09,4.62-33.25,17.27-1.47,3.03-3.16,4.19-6.55,4.16-18.43-.16-36.87-.12-55.3-.03-3.05.01-5.5-.75-7.83-2.82-11.43-10.12-22.96-20.13-34.51-30.11-2.01-1.74-3.3-3.7-4.26-6.24-4.95-13.13-8.46-26.58-10.14-40.52-3.91-32.53.44-63.4,17.98-91.78,10.41-16.85,13.79-35.49,13.03-55.05-.76-19.32,1.68-38.19,7.95-56.53,11.51-33.68,34.14-56.4,67.5-68.55,3.65-1.33,7.39-2.4,11.05-3.71,2.21-.79,4.43-1.12,6.77-1.12,25.92.02,51.85.08,77.77-.06,3.78-.02,5.58,1.42,7.05,4.78,8.81,20.18,17.76,40.3,26.86,60.34,1.59,3.49,1.36,5.75-1.26,8.76-15.98,18.34-6.66,46.45,17.1,51.43,20.32,4.26,34.92-10.2,37.66-25.11,3.13-17-8.3-33.75-25.43-36.71-2.28-.39-4.55-.73-6.87-.61-1.66.08-2.73-.69-3.37-2.16-.41-.92-.81-1.84-1.22-2.76-10.58-23.8-21.22-47.58-31.65-71.45-1.5-3.45-3.38-4.66-7.1-4.64-28.51.14-57.03.08-85.55.07-6.11,0-5.22.18-5.65-5.01-1.51-18.11-.26-35.94,6.24-53.15,8.48-22.42,23.91-37.68,46.69-45.21,16.75-5.53,31.33-14.37,43.44-27.23,7.17-7.61,12.83-16.24,17.36-25.65,5.96-12.37,13.04-24.04,22.3-34.27,10.49-11.58,22.87-20.1,38.26-23.82,16.12-3.9,31.78-2.06,46.96,4.08,8.44,3.41,12.28,10.47,13.37,19.2.23,1.85.19,3.74.19,5.61,0,43.93,0,87.85,0,131.78,0,.86-.07,1.73,0,2.59.17,1.95-.82,2.45-2.59,2.42-4.46-.07-8.93-.09-13.39,0-2.19.05-3.39-.93-4.31-2.84-6.83-14.28-13.69-28.55-20.66-42.76-1.13-2.31-.78-3.88.79-5.81,6.53-8.04,8.29-17.3,5.97-27.24-3.47-14.84-17.92-25.04-33.29-23.77-15.43,1.28-27.59,13.43-28.89,28.89-1.29,15.24,8.68,29.21,23.49,33.02,3.11.8,6.29,1.19,9.42.79,4.03-.52,5.95,1.3,7.57,4.74,7.55,16.01,15.31,31.92,22.99,47.87.19.39.44.76.56,1.17,1,3.21,2.98,4.33,6.47,4.18,7.62-.32,15.26-.04,22.89-.14,2.25-.03,3.18.73,2.98,2.97-.09,1-.01,2.01-.01,3.02,0,73.45,0,146.9-.01,220.35,0,6.9.75,5.83-6.06,5.84-23.33.05-46.66.07-69.99-.04-3.48-.02-5.85,1.01-8.05,3.81-10.16,12.89-20.59,25.57-30.8,38.42-1.88,2.36-3.88,3.41-6.93,3.39-11.52-.04-23.04.04-34.55.34-3.28.09-4.89-1.15-6.23-4.01-15.14-32.32-30.36-64.6-45.68-96.84-1.4-2.95-1.37-4.89.81-7.63,7.91-9.91,9.01-21.13,3.9-32.5-5.17-11.5-14.73-17.27-27.26-18.2-16.69-1.24-30.43,11.62-32.69,26.56-2.47,16.33,7.63,31.4,23.51,35.39,3.24.81,6.57,1.23,9.85.8,3-.39,4.39.78,5.59,3.38,6.89,14.89,13.93,29.71,20.93,44.55,8.29,17.57,16.5,35.18,24.94,52.68,1.51,3.13,1.38,5.45-.52,8.32-5.15,7.81-10.11,15.76-14.88,23.8-1.83,3.08-3.94,4.42-7.6,4.35-11.52-.21-23.04-.21-34.56,0-3.59.07-5.35-1.14-6.76-4.46-8.41-19.71-33.38-25.43-49.44-11.48-9.72,8.44-13.39,21.58-9.43,33.73,4,12.27,15.07,20.94,27.89,21.84,12.6.89,24.7-5.91,30.24-17.56,1.6-3.36,3.57-4.17,6.95-4.13,15.12.16,30.24.02,45.36.2,3.44.04,5.54-1.04,7.34-4.02,6.47-10.72,13.32-21.21,19.74-31.97,2.08-3.49,4.4-4.91,8.57-4.87,14.39.13,28.79-.26,43.19-.3,2.89,0,4.8-1.03,6.57-3.25,10.13-12.73,20.45-25.32,30.52-38.09,2.26-2.86,4.64-4.15,8.36-4.12,20.88.18,41.76.12,62.65.14.72,0,1.45.08,2.16,0,1.98-.2,2.52.84,2.39,2.58-.05.72,0,1.44,0,2.16,0,38.6-.02,77.19.04,115.79,0,2.72-.65,4.93-2.27,7.15-29.1,40.08-58.16,80.19-87.14,120.36-1.9,2.63-3.91,3.68-7.15,3.63-10.94-.16-21.89.06-32.83-.06-2.93-.03-4.8.98-6.47,3.34-5.98,8.46-12.17,16.78-18.19,25.23-1.64,2.3-3.12,3.36-6.36,2.78-16.55-2.98-32.45,7.79-36.13,24.07-3.67,16.2,5.88,32.18,21.81,37.25,11.72,3.73,25.91-.91,33.5-10.27,8.14-10.04,9.43-23.88,3.15-35.23-.56-1.01-1.14-2.02-1.84-2.92-1.14-1.46-1.13-2.75,0-4.27,4.8-6.48,9.55-12.99,14.23-19.56,1.36-1.9,3.12-2.24,5.25-2.24,11.09,0,22.18-.22,33.26-.03,3.5.06,5.5-1.28,7.44-3.98,25.18-34.92,50.46-69.77,75.73-104.63,1-1.38,1.81-2.92,3.53-4.26.71,2.1.41,3.83.41,5.53.02,83.39.02,166.77.02,250.16ZM254.74,638.12c.03-7.38,6.09-13.33,13.52-13.29,7.33.04,13.35,6.23,13.23,13.6-.12,7.23-6.06,13.07-13.3,13.1-7.33.03-13.48-6.1-13.45-13.4ZM366.34,366.2c.08-7.14,6.07-13.19,13.22-13.33,7.18-.14,13.57,6.13,13.62,13.36.05,7.37-5.99,13.38-13.44,13.38-7.47,0-13.48-6.02-13.4-13.42ZM427.4,134.24c-.08,7.03-6.25,13.27-13.24,13.38-7.22.12-13.52-6.09-13.57-13.4-.06-7.39,6.03-13.53,13.37-13.49,7.36.04,13.53,6.23,13.44,13.5ZM259.89,373.38c.1,7.32-6,13.55-13.3,13.6-7.26.05-13.45-6.15-13.44-13.46,0-7.42,5.94-13.21,13.53-13.19,7.37.02,13.11,5.7,13.21,13.05ZM220.35,550.22c-.15,7.12-6.24,13.12-13.36,13.16-7.3.05-13.5-6.14-13.48-13.46.02-7.38,6.12-13.36,13.56-13.29,7.37.07,13.42,6.27,13.27,13.59ZM326.56,787.58c.03,7.25-6.25,13.48-13.52,13.43-7.3-.06-13.39-6.28-13.31-13.62.08-7.15,6.08-13.08,13.29-13.14,7.4-.06,13.52,5.96,13.54,13.33Z"/>
    <path class="cls-3" d="M995.57,652.77c-.07-13.6-4.24-26.35-8.25-39.11-1.72-5.48-3.82-10.86-6.03-16.17-1.58-3.79-1.75-7.4-.59-11.33,6.01-20.29,8.93-41.02,8.56-62.19-.52-29.8-7.48-57.82-23.23-83.38-7.19-11.67-9.6-24.43-9.24-38,.81-30.51-4.26-59.91-17.51-87.64-13.99-29.29-35.75-50.86-64.88-65.06-1.16-.57-2.31-1.2-3.52-1.65-3.88-1.44-5.58-4.07-5.31-8.3.43-6.91.03-13.82-.66-20.7-2.1-20.91-7.87-40.65-19.07-58.58-13.78-22.07-33.63-36.45-58.06-44.55-18.54-6.14-31.93-17.71-40.35-35.31-8.51-17.79-19.31-34.04-33.51-47.87-16.88-16.43-36.69-27.09-60.17-30.57-2.78-.41-5.78.46-8.33-1.36h-13.83c-1.52,1.48-3.51,1.01-5.29,1.19-10.66,1.04-21.07,3.12-30.95,7.35-24.12,10.33-35.72,29.22-37.22,54.91-.11,1.87-.06,3.74-.06,5.61,0,237.85,0,475.7,0,713.55,0,41.61,0,83.22.09,124.83.06,27.81,10.24,51.36,30.58,70.34,17.82,16.63,38.03,29.29,61.63,36.12,6.79,1.96,13.73,3.15,20.73,4.03,1.25.16,2.62-.12,3.7.86h14.69c3.64-1.49,7.57-1.39,11.35-2.07,20.24-3.64,38.25-12.29,54.78-24.29,7.24-5.25,14.13-10.93,20.37-17.35,8.91-9.17,19.45-15.59,31.59-19.6,26.32-8.68,50.83-20.85,72.55-38.27,20.17-16.18,35.79-35.73,44.66-60.29,5.25-14.53,7.5-29.51,7.13-44.92-.36-15.11,5.44-27.42,16.98-37.1,10.99-9.22,20.59-19.69,28.33-31.81,8.78-13.75,14.55-28.7,17.84-44.64.55-2.66-.21-5.49,1.18-8.02v-37.16c-.5-.37-.69-.9-.69-1.49ZM925.51,748.33c-13.62,11.31-22.83,25.34-27.34,42.47-2.11,8.02-2.3,16.21-2.3,24.43.01,19.63-5.88,37.38-17.37,53.27-7.5,10.37-16.78,18.94-27.1,26.43-17.31,12.55-36.55,21.24-56.77,27.8-16.23,5.26-30.26,13.88-42.27,25.93-8.37,8.39-17.46,15.88-27.67,21.97-26.64,15.89-53.77,16.92-81.46,2.85-11.52-5.85-21.88-13.3-31.08-22.36-11.53-11.35-17.42-25.16-17.83-41.33-.03-1.15-.02-2.3-.02-3.46,0-89.28,0-178.57.01-267.85,0-1.55-.29-3.14.39-4.99,1.35.81,1.98,2.09,2.77,3.19,24.68,34.04,49.37,68.06,73.96,102.16,2.2,3.05,4.43,4.66,8.46,4.55,10.65-.28,21.31.07,31.96-.04,3.06-.03,5.08.9,6.82,3.46,3.81,5.59,7.9,10.99,11.89,16.45,2.96,4.05,2.85,3.84.36,7.89-9.2,14.95-4.52,34.24,10.41,43.43,10.75,6.61,24.79,6.06,34.98-1.37,10.35-7.56,15.17-20.49,12.24-32.84-2.96-12.46-13.07-21.97-25.58-23.93-3.57-.56-7.23-.69-10.74.19-2.74.69-4.29-.29-5.8-2.4-5.93-8.32-12.1-16.48-17.9-24.9-2.14-3.09-4.55-4.21-8.26-4.14-10.65.2-21.31-.05-31.97.06-2.87.03-4.79-.79-6.51-3.18-28.56-39.58-57.2-79.1-85.85-118.62-1.16-1.6-1.7-3.2-1.69-5.17.04-40.32.02-80.64.04-120.97,0-3.67.05-3.71,3.86-3.72,20.59-.04,41.19,0,61.78-.14,3.22-.02,5.34,1.09,7.3,3.57,10.02,12.64,20.25,25.11,30.24,37.76,2.24,2.83,4.54,4.19,8.3,4.17,14.25-.09,28.5.32,42.76.28,3.6,0,5.76,1.16,7.62,4.25,6.53,10.85,13.42,21.49,19.96,32.34,1.87,3.1,4.07,4.29,7.67,4.24,15.12-.19,30.24-.04,45.36-.2,3.24-.03,5.11.75,6.64,3.95,6.52,13.67,21.51,20.47,36.12,16.77,14.04-3.56,24.14-16.88,23.71-31.28-.46-15.31-11.25-27.86-26.25-30.52-14.19-2.52-28.38,5-34.11,18.5-1.47,3.46-3.22,4.73-6.97,4.66-11.66-.23-23.33-.18-34.99-.03-3.11.04-5.02-.99-6.63-3.67-4.96-8.27-10.08-16.45-15.33-24.54-1.78-2.73-1.98-5.11-.59-8.05,15.35-32.38,30.61-64.8,45.9-97.2,1.74-3.69,1.92-3.75,5.9-3.45,17.17,1.31,32.23-12.06,33.41-29.65,1.15-17.13-12.27-32.42-29.33-33.24-13.52-.65-23.96,4.86-30.15,16.89-6.16,11.97-4.86,23.73,3.52,34.37,1.84,2.33,1.83,4.09.64,6.59-15.34,32.38-30.64,64.78-45.83,97.23-1.44,3.07-3.24,4.17-6.62,4.07-11.08-.31-22.17-.42-33.25-.32-3.65.03-6.14-1.09-8.43-4-9.97-12.67-20.23-25.12-30.23-37.77-2.17-2.74-4.48-3.9-8.01-3.88-23.04.14-46.08.08-69.12.07-5.18,0-4.86.55-4.86-4.92,0-74.02,0-148.04,0-222.06,0-5.77-.37-5.16,5.05-5.16,6.19,0,12.39-.11,18.57.17,3.41.15,5.2-1.16,6.62-4.18,7.68-16.26,15.55-32.44,23.35-48.65.44-.91.88-1.81,1.28-2.74.85-1.93,2.09-2.86,4.4-2.45,3.58.63,7.18.05,10.73-.58,21.17-3.75,33.4-33.35,16.41-51.5-8.6-9.19-18.77-13.09-31.16-9.8-12.69,3.37-20.79,11.46-23.49,24.38-1.92,9.2.04,17.81,5.85,25.25,1.95,2.49,2.23,4.4.8,7.27-6.74,13.52-13.31,27.13-19.75,40.8-1.35,2.87-3,4.18-6.22,3.93-3.44-.26-6.91-.1-10.36-.06-1.44.01-2.13-.56-2.07-2.04.04-1.01,0-2.02,0-3.02,0-44.21,0-88.42-.02-132.63,0-3.33.2-6.62,1.19-9.82,1.93-6.22,5.5-11.24,11.63-13.7,24.06-9.67,47.47-9.18,69.74,5.23,9.56,6.18,17.16,14.42,23.87,23.53,5.74,7.79,10.46,16.19,14.69,24.88,12.4,25.49,31.93,43.15,58.82,52.05,28.99,9.59,45.77,29.64,52.49,58.84,3.16,13.73,3.8,27.63,2.23,41.63-.41,3.68-.53,3.72-4.19,3.73-29.38.02-58.75.03-88.13-.01-5.8,0-5.8-.1-8.08,5.03-10.45,23.54-20.89,47.09-31.34,70.63-.35.79-.75,1.56-1.04,2.37-.77,2.17-2.11,2.99-4.56,2.97-7.57-.05-14.45,2.18-20.38,7.05-13.12,10.78-15.41,30.56-5.08,43.86,10.54,13.57,30.25,16.25,44.12,6.19,10.68-7.74,18.67-28.16,6.48-43.96-.97-1.25-1.94-2.53-3.08-3.61-1.74-1.64-1.83-3.27-.87-5.41,9.54-21.27,19.02-42.57,28.46-63.88.94-2.13,2.29-3.15,4.61-3.08,2.59.08,5.18,0,7.78,0,24.34,0,48.67.02,73.01-.03,2.92,0,5.69.45,8.47,1.34,11.53,3.73,22.76,8.1,33.1,14.57,23.32,14.59,37.95,35.63,45.87,61.64,5.34,17.51,7.42,35.45,6.7,53.73-.8,20.08,3.61,38.83,14.23,56.04,11.62,18.83,17.1,39.52,17.85,61.49.77,22.38-2.41,44.2-10.14,65.3-1.02,2.79-2.49,5.03-4.77,6.98-12.22,10.52-24.41,21.09-36.46,31.81-2.89,2.57-5.88,3.59-9.73,3.56-17.71-.15-35.42-.16-53.13,0-3.86.04-6.14-.85-8.01-4.68-6.25-12.83-20.65-19.45-34.36-16.4-14.11,3.15-24.17,14.95-24.96,28.87-.99,17.29,11.07,28.77,21.83,32.22,12.22,3.91,31.22-.17,38.36-17.45,1.45-3.52,3.33-4.67,7.03-4.64,20.3.16,40.61,0,60.92.15,3.58.03,6.25-1.04,8.89-3.39,11.63-10.32,23.41-20.48,35.16-30.67,1.04-.91,1.88-2.17,3.46-2.46.29.37.64.66.79,1.02,7.86,19.04,13.31,38.71,13.58,59.41.4,31.57-11.48,57.76-35.86,78ZM744.43,787.53c.07-7.43,6.14-13.36,13.57-13.27,7.32.09,13.54,6.46,13.3,13.63-.24,7.13-6.36,13.1-13.44,13.13-7.3.03-13.51-6.2-13.44-13.48ZM850.52,549.7c.13-7.06,6.28-13.04,13.43-13.08,7.45-.03,13.49,5.97,13.45,13.38-.03,7.36-6.23,13.48-13.54,13.38-7.24-.11-13.47-6.49-13.34-13.68ZM811.2,373.73c-.08-7.7,5.52-13.4,13.16-13.4,7.44,0,13.62,6.04,13.57,13.26-.05,7.17-6.46,13.47-13.63,13.38-7.18-.09-13.03-5.99-13.1-13.24ZM643.64,133.93c.05-7.16,6.04-13.15,13.23-13.2,7.37-.05,13.61,6.1,13.55,13.36-.06,7.32-6.39,13.66-13.48,13.52-7.36-.14-13.34-6.3-13.29-13.68ZM704.57,366.42c-.03,7.25-5.88,13.12-13.15,13.2-7.43.08-13.63-5.87-13.73-13.16-.09-7.13,6.27-13.54,13.48-13.58,7.27-.03,13.43,6.19,13.4,13.54ZM816.34,638.24c-.04,7.19-6.41,13.37-13.69,13.28-7.33-.08-13-5.82-13.06-13.22-.05-7.58,5.73-13.48,13.21-13.48,7.31,0,13.57,6.21,13.53,13.41Z"/>
  </g>
</svg>